<?xml version="1.0" standalone="no"?><!DOCTYPE svg PUBLIC "-//W3C//DTD SVG 1.1//EN" "http://www.w3.org/Graphics/SVG/1.1/DTD/svg11.dtd"><svg class="icon" width="200px" height="132.47px" viewBox="0 0 1546 1024" version="1.1" xmlns="http://www.w3.org/2000/svg"><path d="M11.307975 1017.717791h1519.038037V7.53865H11.307975v1010.179141z m1522.807362 2.512884v-3.769325 3.769325zM5.025767 1024V0h1531.602454V1022.743558H5.025767z" fill="#353636" /><path d="M8.795092 3.769325h1525.320245v1016.46135H8.795092z" fill="#CC303C" /><path d="M771.455215 833.020859c-11.307975-13.820859-28.89816-28.89816-23.872393-49.001227l11.307976-17.590184 1.256441-15.077301c-8.795092 8.795092-16.333742 21.359509-30.154601 25.128835-8.795092 3.769325-18.846626 1.256442-25.128834-5.025767l-1.256442-10.051534c8.795092-6.282209 22.615951-5.025767 30.154601-13.820859 7.53865-7.53865 10.051534-20.103067 8.795092-31.411043-13.820859 6.282209-22.615951 23.872393-38.949693 23.872393-11.307975 2.512883-25.128834-5.025767-26.385276-17.590184 12.564417-7.53865 26.385276-6.282209 40.206135-11.307976 7.53865-3.769325 11.307975-12.564417 8.795092-21.359509-11.307975 3.769325-22.615951 15.077301-35.180368 12.564417-10.051534 1.256442-21.359509-7.53865-21.359509-18.846626 7.53865-1.256442 16.333742-2.512883 23.872392-3.769325 15.077301-3.769325 26.385276-15.077301 35.180368-26.385276 12.564417-18.846626 21.359509-40.206135 22.615951-61.565644l-5.025767-16.333742c-10.051534-1.256442-15.077301 8.795092-21.359509 16.333742-12.564417 18.846626-25.128834 40.206135-32.667484 62.822086-11.307975 0-20.103067-6.282209-28.89816-11.307975l-16.333742 1.256441c-15.077301 6.282209-30.154601 11.307975-45.231902 17.590184l16.333742 6.282209 18.846626 2.512883 11.307975 11.307976 1.256442 16.333742-8.795092-7.53865c-6.282209-6.282209-17.590184 2.512883-22.615951-5.025767-7.53865-8.795092-17.590184-13.820859-28.898159-17.590184l-10.051534-1.256442c-8.795092 5.025767-18.846626 10.051534-26.385276 18.846626l-11.307976 12.564417-16.333742 2.512884-8.795092 17.590184c-6.282209-10.051534-1.256442-21.359509 1.256442-32.667485 2.512883-8.795092 13.820859-10.051534 21.359509-10.051534 11.307975 1.256442 20.103067-6.282209 27.641718-12.564417-18.846626 0-36.43681 1.256442-55.283436 3.769325l-17.590184-6.282208-18.846626 1.256441 10.051534-11.307975c7.53865-2.512883 15.077301-3.769325 22.615951-5.025767 8.795092-2.512883 15.077301 5.025767 23.872393 6.282209 12.564417 2.512883 25.128834 2.512883 36.436809 2.512883-10.051534-8.795092-21.359509-16.333742-35.180368-16.333742-7.53865 0-10.051534-7.53865-16.333742-10.051534l-17.590184-1.256442 8.795092-11.307975c7.53865-1.256442 15.077301 1.256442 23.872393 1.256441l17.590184 6.282209c7.53865 13.820859 21.359509 21.359509 33.923926 28.89816l8.795092-1.256442c17.590184-7.53865 35.180368-13.820859 51.514111-21.359509l-12.564418-16.333743c21.359509-11.307975 43.97546-23.872393 57.796319-43.97546 7.53865-11.307975 15.077301-22.615951 13.820859-36.43681-10.051534 15.077301-17.590184 33.923926-36.43681 38.949694l-8.795092-10.051534c3.769325-6.282209 10.051534-11.307975 12.564418-17.590184 3.769325-7.53865 3.769325-15.077301 5.025766-23.872393l-12.564417 1.256442c-5.025767 8.795092-7.53865 20.103067-13.820859 30.154601-7.53865 13.820859-15.077301 30.154601-30.154601 37.693252-8.795092 2.512883-23.872393-2.512883-20.103067-13.820859 8.795092-10.051534 21.359509-15.077301 27.641717-26.385276 6.282209-12.564417 15.077301-27.641718 6.282209-40.206135-12.564417 11.307975-18.846626 26.385276-30.154601 38.949693-15.077301 16.333742-27.641718 36.43681-49.001227 46.488344-10.051534 5.025767-21.359509 7.53865-31.411043 6.282208-10.051534-1.256442-21.359509-6.282209-26.385276-16.333742l6.282208-11.307976c7.53865-2.512883 15.077301 0 23.872393 0 12.564417 1.256442 25.128834-5.025767 35.180368-12.564417 18.846626-17.590184 32.667485-41.462577 41.462577-65.334969l-3.769325-5.025767c-13.820859 15.077301-28.89816 31.411043-46.488344 42.719018-12.564417 7.53865-26.385276 12.564417-41.462577 8.795092-11.307975-2.512883-22.615951-10.051534-22.61595-22.615951 1.256442-7.53865 10.051534-7.53865 16.333742-7.53865 15.077301 1.256442 30.154601 2.512883 43.97546-3.769325 16.333742-10.051534 28.89816-25.128834 40.206135-40.206135 5.025767-8.795092 13.820859-16.333742 12.564417-27.641718-18.846626 10.051534-32.667485 26.385276-51.51411 36.43681-13.820859 10.051534-32.667485 12.564417-49.001227 5.025767-7.53865-2.512883-12.564417-11.307975-11.307976-20.103068l7.538651-11.307975c16.333742 1.256442 31.411043 7.53865 47.744785 3.769325 17.590184-6.282209 30.154601-20.103067 41.462576-32.667485l6.282209-16.333742c-18.846626 3.769325-33.923926 15.077301-51.51411 22.615951-10.051534 3.769325-20.103067 5.025767-31.411043 3.769325-11.307975-1.256442-21.359509-10.051534-22.615951-21.359509l7.53865-11.307975c15.077301-2.512883 25.128834 11.307975 38.949693 8.795092 25.128834 0 51.51411-12.564417 60.309203-37.693252l-3.769325-3.769325c-12.564417 2.512883-23.872393 8.795092-36.43681 12.564417-23.872393 5.025767-51.51411 0-67.847853-18.846626l2.512884-18.846625c11.307975-2.512883 20.103067 6.282209 30.154601 10.051533 17.590184 8.795092 40.206135 11.307975 56.539877-1.256441 10.051534-6.282209 20.103067-16.333742 20.103068-28.89816-13.820859 2.512883-26.385276 10.051534-41.462577 12.564417-17.590184 1.256442-36.43681 1.256442-51.514111-8.795092-11.307975-7.53865-22.615951-20.103067-20.103067-35.180368l15.077301-5.025767c7.53865 5.025767 12.564417 13.820859 20.103067 17.590184 12.564417 8.795092 28.89816 10.051534 43.97546 8.795092 10.051534-1.256442 22.615951 1.256442 27.641718-8.795092l-10.051534-13.820859c-28.89816-5.025767-56.539877-15.077301-80.41227-32.667484-8.795092-6.282209-16.333742-15.077301-18.846626-25.128835-2.512883-10.051534 3.769325-22.615951 15.077301-23.872392 7.53865 0 11.307975 6.282209 15.077301 12.564417 17.590184 30.154601 51.51411 45.231902 84.181595 52.770552l6.282208-15.077301c17.590184 7.53865 35.180368 13.820859 52.770553 20.103068 7.53865 2.512883 15.077301 6.282209 18.846625 12.564417 10.051534 12.564417 2.512883 30.154601 7.538651 43.97546l15.0773 10.051534c11.307975 1.256442 21.359509-6.282209 22.615951-17.590184 2.512883-26.385276-11.307975-54.026994-35.180368-66.591411-13.820859-8.795092-31.411043-10.051534-47.744785-12.564417-11.307975-1.256442-13.820859-16.333742-25.128835-16.333743-8.795092-1.256442-18.846626-3.769325-25.128834-10.051533L577.96319 206.056442l8.795092-2.512884c7.53865 5.025767 11.307975 12.564417 18.846626 16.333743 10.051534 2.512883 20.103067 3.769325 30.154601 1.256441v-6.282208l-11.307975-2.512884-13.820859 7.538651 6.282208-17.590184c7.53865-5.025767 17.590184-3.769325 26.385277-5.025767 7.53865 0 12.564417-6.282209 18.846625-6.282209 13.820859-1.256442 26.385276 3.769325 37.693252 8.795092 15.077301 7.53865 31.411043 1.256442 47.744785 0-5.025767 7.53865-12.564417 13.820859-21.359509 17.590184l-1.256442 3.769325c7.53865 6.282209 16.333742 10.051534 25.128835 13.820859l-13.820859 8.795092c6.282209 8.795092 15.077301 12.564417 25.128834 15.077301l-12.564417 7.53865 8.795092 8.795092 12.564417 1.256442-5.025767 11.307975H781.506748l-5.025766-11.307975 12.564417-1.256442 10.051534-8.795092-12.564418-7.53865c10.051534-2.512883 18.846626-6.282209 25.128835-15.077301l-13.820859-8.795092c8.795092-3.769325 17.590184-8.795092 25.128834-13.820859l-3.769325-2.512883c-8.795092-3.769325-16.333742-10.051534-21.359509-17.590184 15.077301 1.256442 32.667485 7.53865 47.744785 0 12.564417-5.025767 25.128834-10.051534 37.693252-8.795092 6.282209 1.256442 11.307975 6.282209 18.846625 6.282208 8.795092 1.256442 17.590184 1.256442 26.385276 5.025767l6.282209 17.590184-13.820859-7.53865-11.307975 2.512883v6.282209c10.051534 2.512883 20.103067 1.256442 30.154601-1.256442 7.53865-3.769325 11.307975-12.564417 18.846626-16.333742l8.795092 2.512883-6.282209 11.307976c-6.282209 6.282209-16.333742 8.795092-25.128834 10.051534-11.307975 0-13.820859 15.077301-25.128835 16.333742-16.333742 2.512883-33.923926 3.769325-47.744785 12.564417-23.872393 11.307975-36.43681 40.206135-35.180368 66.591411 1.256442 11.307975 11.307975 18.846626 22.615951 17.590184l15.077301-10.051534c5.025767-13.820859-3.769325-31.411043 7.53865-43.97546 3.769325-7.53865 11.307975-10.051534 18.846626-12.564417 17.590184-6.282209 35.180368-12.564417 52.770552-20.103067l6.282208 15.0773c32.667485-6.282209 66.591411-22.615951 84.181595-52.770552 3.769325-5.025767 7.53865-12.564417 15.077301-12.564417 11.307975 0 17.590184 13.820859 15.077301 23.872393-2.512883 10.051534-11.307975 18.846626-20.103068 25.128834-23.872393 17.590184-51.51411 27.641718-80.41227 32.667485l-10.051533 13.820859c6.282209 10.051534 18.846626 7.53865 27.641717 8.795092 15.077301 1.256442 31.411043 0 43.97546-8.795092 7.53865-5.025767 12.564417-12.564417 20.103068-17.590184l15.077301 5.025766c3.769325 15.077301-7.53865 27.641718-20.103068 35.180368-15.077301 10.051534-33.923926 10.051534-51.51411 8.795092-13.820859-1.256442-26.385276-10.051534-41.462577-12.564417 0 12.564417 10.051534 21.359509 20.103067 28.89816 16.333742 12.564417 38.949693 10.051534 56.539878 1.256442 10.051534-5.025767 18.846626-12.564417 30.154601-10.051534V356.829448c-17.590184 18.846626-43.97546 23.872393-67.847853 18.846626-12.564417-3.769325-23.872393-10.051534-36.43681-12.564418l-3.769325 3.769326c8.795092 23.872393 36.43681 36.43681 60.309203 37.693251 13.820859 2.512883 25.128834-11.307975 38.949693-8.795092l8.795092 11.307976c-1.256442 11.307975-12.564417 20.103067-22.615951 21.359509-10.051534 1.256442-21.359509 1.256442-31.411043-3.769325-16.333742-7.53865-32.667485-18.846626-51.51411-22.615951l6.282208 16.333742c11.307975 13.820859 25.128834 26.385276 41.462577 32.667485 16.333742 5.025767 31.411043-2.512883 47.744785-3.769325l7.538651 11.307975c1.256442 8.795092-3.769325 16.333742-12.564418 20.103067-16.333742 7.53865-35.180368 5.025767-49.001227-5.025766-18.846626-10.051534-32.667485-27.641718-50.257668-36.43681-1.256442 11.307975 7.53865 18.846626 12.564417 27.641718 11.307975 15.077301 22.615951 31.411043 40.206135 40.206135 13.820859 7.53865 28.89816 6.282209 43.97546 3.769325 6.282209-1.256442 15.077301 0 16.333742 7.53865 0 12.564417-12.564417 20.103067-22.615951 22.615951-13.820859 3.769325-28.89816-1.256442-41.462576-8.795092-18.846626-11.307975-32.667485-27.641718-46.488344-42.719018l-3.769325 3.769325c8.795092 23.872393 22.615951 47.744785 41.462577 65.334969 10.051534 7.53865 22.615951 13.820859 35.180368 12.564417 7.53865 0 15.077301-3.769325 22.615951 0l6.282208 11.307976c-5.025767 10.051534-15.077301 15.077301-26.385276 16.333742-11.307975 2.512883-22.615951-1.256442-31.411043-6.282209-21.359509-10.051534-33.923926-30.154601-49.001227-46.488343-11.307975-12.564417-17.590184-27.641718-30.154601-38.949693-8.795092 12.564417 0 28.89816 6.282209 40.206135 6.282209 12.564417 18.846626 17.590184 27.641717 26.385276 3.769325 11.307975-12.564417 16.333742-20.103067 13.820858-15.077301-7.53865-22.615951-23.872393-30.154601-37.693251-5.025767-10.051534-7.53865-20.103067-13.820859-30.154601l-12.564417-1.256442c1.256442 7.53865 1.256442 16.333742 5.025766 23.872393 2.512883 7.53865 8.795092 11.307975 12.564418 17.590184l-8.795092 10.051533c-18.846626-5.025767-26.385276-23.872393-36.43681-38.949693-1.256442 13.820859 6.282209 25.128834 13.820859 36.43681 13.820859 20.103067 36.43681 32.667485 57.796319 43.97546l-12.564417 16.333742c16.333742 8.795092 35.180368 15.077301 51.51411 21.35951l8.795092 1.256441c12.564417-6.282209 26.385276-15.077301 33.923926-28.898159l17.590184-6.282209c7.53865 0 16.333742-2.512883 23.872393-1.256441l8.795092 11.307975-17.590184 1.256442c-6.282209 2.512883-8.795092 10.051534-16.333742 10.051533-13.820859 0-25.128834 8.795092-35.180368 16.333743 12.564417 0 25.128834 0 36.436809-2.512884 7.53865-1.256442 15.077301-8.795092 23.872393-6.282208 7.53865 1.256442 15.077301 2.512883 22.615951 5.025767l10.051534 11.307975-18.846626-1.256442c-6.282209 2.512883-10.051534 7.53865-17.590184 6.282209-17.590184-2.512883-36.43681-3.769325-55.283436-3.769325 8.795092 6.282209 17.590184 13.820859 27.641718 12.564417 7.53865 1.256442 18.846626 1.256442 21.359509 10.051534 2.512883 10.051534 7.53865 22.615951 1.256442 32.667484l-8.795092-17.590184-16.333742-2.512883-11.307976-12.564417c-7.53865-7.53865-16.333742-13.820859-26.385276-18.846626l-10.051534 1.256442c-10.051534 3.769325-21.359509 8.795092-28.898159 17.590184-6.282209 7.53865-16.333742-1.256442-22.615951 5.025767l-7.53865 7.53865 1.256441-16.333742 11.307976-11.307976 18.846626-2.512883 16.333742-6.282209c-15.077301-6.282209-30.154601-11.307975-45.231902-17.590184l-15.077301 1.256442c-8.795092 6.282209-17.590184 11.307975-28.898159 11.307975-7.53865-22.615951-18.846626-42.719018-32.667485-62.822086-5.025767-6.282209-10.051534-17.590184-21.359509-16.333742l-5.025767 15.077301c1.256442 22.615951 10.051534 43.97546 22.615951 61.565644 8.795092 11.307975 20.103067 22.615951 35.180368 26.385276 7.53865 1.256442 16.333742 2.512883 23.872393 3.769325 1.256442 11.307975-10.051534 20.103067-21.359509 18.846626-13.820859 2.512883-23.872393-7.53865-35.180368-12.564417-1.256442 8.795092 1.256442 17.590184 8.795092 21.359509 12.564417 5.025767 27.641718 5.025767 40.206135 11.307975-1.256442 12.564417-15.077301 20.103067-26.385277 17.590184-16.333742-1.256442-25.128834-17.590184-38.949693-23.872392-1.256442 11.307975 0 22.615951 8.795092 31.411043 7.53865 8.795092 20.103067 7.53865 30.154601 13.820859l-1.256441 12.564417c-6.282209 6.282209-16.333742 8.795092-25.128835 5.025767-12.564417-5.025767-20.103067-16.333742-28.898159-25.128835l1.256442 15.077301 11.307975 17.590184c3.769325 20.103067-13.820859 35.180368-25.128834 49.001227z" fill="#231815" /></svg>