<svg id="svg" version="1.1" xmlns="http://www.w3.org/2000/svg" xmlns:xlink="http://www.w3.org/1999/xlink" width="400" height="266.6666666666667" viewBox="0, 0, 400,266.6666666666667"><g id="svgg"><path id="path0" d="M0.000 222.264 L 0.000 266.667 200.000 266.667 L 400.000 266.667 400.000 222.264 L 400.000 177.861 321.093 177.861 L 242.187 177.861 243.840 180.300 C 244.749 181.642,245.276 182.561,245.010 182.343 C 244.745 182.125,243.381 181.027,241.979 179.904 L 239.430 177.861 231.785 177.861 C 227.580 177.861,224.140 177.950,224.140 178.058 C 224.140 178.166,225.208 181.675,226.514 185.857 C 227.819 190.039,228.853 193.494,228.811 193.536 C 228.769 193.578,226.341 190.069,223.414 185.737 L 218.094 177.861 213.990 177.861 L 209.887 177.861 209.821 188.555 L 209.756 199.250 206.504 188.556 L 203.252 177.862 200.000 177.862 L 196.748 177.862 193.496 188.556 L 190.244 199.250 190.179 188.555 L 190.113 177.861 186.010 177.861 L 181.906 177.861 176.586 185.737 C 173.659 190.069,171.232 193.579,171.191 193.538 C 171.150 193.497,172.183 190.038,173.486 185.850 C 174.790 181.663,175.857 178.152,175.858 178.049 C 175.859 177.946,172.426 177.861,168.230 177.861 L 160.600 177.861 157.911 180.033 C 156.432 181.227,155.059 182.325,154.859 182.472 C 154.660 182.619,155.243 181.642,156.155 180.300 L 157.813 177.861 78.907 177.861 L 0.000 177.861 0.000 222.264 " stroke="none" fill="#248c43" fill-rule="evenodd"></path><path id="path1" d="M0.000 133.333 L 0.000 177.611 78.987 177.606 L 157.974 177.602 165.749 166.287 C 170.025 160.064,173.499 154.937,173.468 154.895 C 173.438 154.853,166.413 157.593,157.857 160.984 C 149.302 164.376,142.269 167.112,142.228 167.065 C 142.188 167.018,148.058 162.310,155.274 156.604 C 162.489 150.898,168.293 146.196,168.172 146.155 C 168.051 146.115,160.754 146.647,151.956 147.337 C 143.158 148.028,135.679 148.589,135.335 148.585 C 134.991 148.580,141.798 145.816,150.463 142.441 C 159.127 139.067,166.242 136.281,166.272 136.250 C 166.303 136.219,159.102 134.576,150.269 132.599 C 134.490 129.068,132.675 128.630,133.690 128.596 C 134.217 128.579,165.274 126.373,166.460 126.268 C 167.048 126.216,164.340 124.574,152.534 117.824 C 144.473 113.215,138.009 109.418,138.169 109.386 C 138.330 109.355,145.666 111.004,154.472 113.052 C 163.277 115.100,170.515 116.744,170.555 116.705 C 170.595 116.666,165.699 111.350,159.673 104.892 C 153.648 98.434,148.493 92.884,148.218 92.560 C 147.601 91.832,146.487 91.210,163.593 101.160 C 170.811 105.359,176.756 108.756,176.804 108.708 C 176.852 108.660,174.768 104.247,172.173 98.901 L 167.456 89.181 83.728 89.118 L 0.000 89.055 0.000 133.333 M173.138 90.050 C 174.352 91.478,185.231 103.252,185.293 103.206 C 185.354 103.162,183.431 90.468,183.235 89.619 C 183.105 89.056,183.100 89.056,177.699 89.056 L 172.293 89.056 173.138 90.050 M189.660 89.278 C 189.706 89.401,190.922 91.946,192.363 94.934 L 194.982 100.367 195.660 95.774 C 196.032 93.249,196.408 90.704,196.495 90.119 L 196.654 89.056 193.115 89.056 C 191.151 89.056,189.614 89.155,189.660 89.278 M203.505 90.119 C 203.592 90.704,203.968 93.249,204.340 95.774 L 205.018 100.367 207.637 94.934 C 209.078 91.946,210.294 89.401,210.340 89.278 C 210.386 89.155,208.849 89.056,206.885 89.056 L 203.346 89.056 203.505 90.119 M216.765 89.619 C 216.569 90.468,214.646 103.162,214.707 103.206 C 214.769 103.252,225.648 91.478,226.862 90.050 L 227.707 89.056 222.301 89.056 C 216.900 89.056,216.895 89.056,216.765 89.619 M229.472 95.497 C 223.308 108.147,222.883 109.083,223.472 108.710 C 223.937 108.416,247.940 94.448,251.157 92.599 C 252.661 91.735,253.267 91.046,240.454 104.771 C 234.361 111.298,229.409 116.672,229.450 116.713 C 229.491 116.754,236.781 115.106,245.649 113.050 C 254.517 110.995,261.853 109.342,261.951 109.378 C 262.049 109.414,255.542 113.215,247.492 117.824 L 232.854 126.204 249.072 127.376 C 257.992 128.021,265.619 128.555,266.020 128.564 C 266.422 128.573,266.693 128.637,266.624 128.706 C 266.525 128.806,235.912 135.771,234.040 136.120 C 233.775 136.170,240.665 138.968,249.350 142.339 C 258.035 145.710,264.995 148.501,264.817 148.541 C 264.640 148.581,257.203 148.041,248.292 147.341 C 239.381 146.641,231.983 146.104,231.852 146.147 C 231.721 146.191,237.517 150.896,244.732 156.603 C 251.946 162.310,257.819 167.014,257.782 167.056 C 257.746 167.099,250.742 164.369,242.218 160.990 C 233.694 157.611,226.654 154.847,226.573 154.847 C 226.492 154.847,229.936 159.967,234.226 166.224 L 242.026 177.601 321.013 177.606 L 400.000 177.611 400.000 133.333 L 400.000 89.056 316.306 89.056 L 232.611 89.056 229.472 95.497 M171.357 169.269 C 166.335 173.325,161.945 176.857,161.601 177.119 C 160.982 177.590,161.049 177.595,168.491 177.603 L 176.007 177.611 178.355 170.044 C 179.647 165.882,180.752 162.336,180.810 162.164 C 181.037 161.498,180.208 162.121,171.357 169.269 M219.190 162.164 C 219.248 162.336,220.353 165.882,221.645 170.044 L 223.993 177.611 231.496 177.611 C 235.623 177.611,238.892 177.516,238.762 177.400 C 237.679 176.441,219.363 161.851,219.242 161.851 C 219.155 161.851,219.131 161.992,219.190 162.164 M186.102 171.749 L 182.210 177.486 186.075 177.555 C 188.200 177.593,189.982 177.581,190.034 177.529 C 190.086 177.477,190.098 174.865,190.061 171.723 L 189.994 166.012 186.102 171.749 M209.889 171.795 L 209.881 177.611 213.872 177.611 L 217.862 177.611 214.435 172.536 C 212.549 169.745,210.757 167.127,210.452 166.720 L 209.897 165.979 209.889 171.795 M199.642 168.518 C 199.497 169.047,198.826 171.282,198.152 173.483 L 196.927 177.486 198.537 177.560 C 199.422 177.601,200.804 177.601,201.608 177.560 L 203.071 177.486 201.594 172.625 C 199.904 167.061,199.992 167.248,199.642 168.518 " stroke="none" fill="#fbfbfb" fill-rule="evenodd"></path><path id="path2" d="M199.895 67.193 C 199.876 67.449,197.658 82.698,195.858 94.931 C 195.434 97.819,195.040 100.228,194.982 100.285 C 194.881 100.387,192.687 95.899,189.492 89.056 C 185.860 81.276,180.366 69.941,180.364 70.225 C 180.363 70.501,181.302 76.600,184.361 96.185 C 184.920 99.762,185.347 102.842,185.309 103.028 C 185.272 103.215,184.171 102.195,182.864 100.762 C 181.557 99.329,176.773 94.120,172.233 89.187 C 167.692 84.254,163.612 79.814,163.165 79.321 C 162.215 78.271,162.618 79.144,171.585 97.534 C 174.631 103.780,177.089 108.923,177.049 108.963 C 177.009 109.003,170.786 105.432,163.222 101.027 C 155.658 96.622,149.131 92.841,148.718 92.624 C 147.872 92.180,147.898 92.209,161.669 106.942 C 166.685 112.308,170.703 116.732,170.598 116.773 C 170.493 116.814,163.295 115.200,154.603 113.185 C 145.911 111.171,138.751 109.571,138.691 109.631 C 138.632 109.690,144.827 113.315,152.458 117.686 C 160.090 122.057,166.523 125.772,166.755 125.942 C 167.293 126.335,167.929 126.276,149.042 127.612 C 140.690 128.203,133.891 128.721,133.933 128.763 C 133.975 128.805,141.249 130.469,150.096 132.460 C 158.944 134.452,166.234 136.132,166.296 136.193 C 166.438 136.335,167.370 135.963,149.929 142.728 C 141.790 145.885,135.148 148.486,135.170 148.509 C 135.192 148.532,142.695 147.960,151.845 147.238 C 160.994 146.516,168.527 145.963,168.585 146.009 C 168.713 146.110,170.595 144.598,155.722 156.344 C 148.705 161.886,142.805 166.568,142.610 166.750 C 142.415 166.932,146.749 165.299,152.241 163.122 C 157.733 160.945,164.796 158.147,167.936 156.903 C 171.076 155.659,173.594 154.772,173.531 154.932 C 173.469 155.091,169.893 160.344,165.585 166.604 C 161.278 172.864,157.020 179.051,156.124 180.353 C 154.253 183.073,154.247 183.075,158.974 179.191 C 165.289 174.003,180.897 161.552,180.978 161.637 C 181.025 161.686,180.056 164.934,178.825 168.856 C 172.389 189.355,171.117 193.465,171.188 193.536 C 171.231 193.579,173.623 190.118,176.502 185.845 C 179.382 181.572,183.596 175.326,185.866 171.965 L 189.994 165.854 190.119 182.552 L 190.244 199.250 193.582 188.243 C 200.750 164.603,199.975 166.911,200.328 168.144 C 200.640 169.230,206.425 188.343,208.304 194.497 L 209.756 199.250 209.881 182.552 L 210.006 165.854 214.134 171.965 C 216.404 175.326,220.618 181.572,223.498 185.845 C 226.377 190.118,228.770 193.578,228.813 193.534 C 228.857 193.490,227.589 189.298,225.994 184.219 C 218.080 159.012,218.691 161.135,219.573 161.903 C 219.815 162.113,225.528 166.706,232.270 172.110 C 239.012 177.514,244.746 182.117,245.013 182.338 C 245.530 182.767,245.478 182.689,234.069 166.104 C 229.952 160.119,226.532 155.091,226.469 154.931 C 226.343 154.611,227.022 154.870,244.876 161.960 C 251.671 164.659,257.264 166.834,257.305 166.794 C 257.360 166.738,234.004 148.129,231.718 146.407 C 231.018 145.879,231.088 145.883,248.155 147.228 C 257.305 147.950,264.810 148.523,264.834 148.502 C 264.858 148.481,257.935 145.773,249.449 142.483 C 235.804 137.193,233.079 136.085,233.707 136.085 C 234.017 136.085,265.967 128.864,266.057 128.773 C 266.107 128.723,259.370 128.199,251.086 127.610 C 242.801 127.020,235.291 126.461,234.396 126.366 L 232.770 126.193 234.271 125.312 C 235.097 124.828,241.544 121.127,248.599 117.089 C 255.653 113.051,261.377 109.698,261.318 109.640 C 261.259 109.581,254.105 111.181,245.419 113.196 C 236.734 115.211,229.534 116.823,229.419 116.779 C 229.305 116.734,233.424 112.195,238.573 106.692 C 243.721 101.188,248.856 95.679,249.983 94.448 L 252.033 92.211 250.657 92.994 C 249.900 93.424,243.375 97.212,236.157 101.410 C 228.939 105.609,222.998 109.010,222.955 108.967 C 222.913 108.925,225.369 103.780,228.415 97.534 C 237.382 79.144,237.785 78.271,236.835 79.321 C 236.388 79.814,232.308 84.254,227.767 89.187 C 223.227 94.120,218.443 99.329,217.136 100.762 C 215.829 102.195,214.728 103.215,214.691 103.028 C 214.653 102.842,215.080 99.762,215.640 96.185 C 218.051 80.762,219.637 70.445,219.636 70.192 C 219.634 69.934,213.961 81.660,210.508 89.056 C 207.151 96.246,205.116 100.384,204.997 100.265 C 204.929 100.197,204.260 95.874,203.511 90.658 C 200.646 70.721,199.961 66.271,199.895 67.193 " stroke="none" fill="#fbbb0c" fill-rule="evenodd"></path><path id="path3" d="M0.000 44.403 L 0.000 88.806 83.680 88.806 L 167.360 88.806 166.322 86.742 C 163.409 80.954,162.311 78.378,163.149 79.300 C 163.587 79.781,165.740 82.117,167.933 84.490 L 171.921 88.806 177.518 88.806 C 181.424 88.806,183.114 88.722,183.114 88.530 C 183.114 88.379,182.495 84.266,181.739 79.391 C 180.982 74.516,180.364 70.390,180.364 70.223 C 180.365 70.056,182.384 74.140,184.850 79.300 L 189.333 88.680 193.041 88.749 L 196.748 88.817 198.233 78.618 C 199.050 73.008,199.790 68.080,199.876 67.667 C 200.057 66.805,199.889 65.819,201.907 79.618 L 203.252 88.817 206.959 88.749 L 210.667 88.680 215.150 79.300 C 217.616 74.140,219.635 70.040,219.636 70.188 C 219.636 70.335,219.018 74.467,218.261 79.368 C 217.505 84.270,216.886 88.398,216.886 88.543 C 216.886 88.718,218.741 88.806,222.482 88.806 L 228.079 88.806 232.067 84.490 C 234.260 82.117,236.413 79.781,236.851 79.300 C 237.689 78.378,236.591 80.954,233.678 86.742 L 232.640 88.806 316.320 88.806 L 400.000 88.806 400.000 44.403 L 400.000 0.000 200.000 0.000 L 0.000 0.000 0.000 44.403 " stroke="none" fill="#ec1c1c" fill-rule="evenodd"></path><path id="path4" d="M30.144 88.992 C 111.236 89.162,167.546 89.163,167.441 88.993 C 167.377 88.890,129.649 88.833,83.600 88.867 C 37.551 88.901,13.496 88.957,30.144 88.992 M172.108 89.012 C 172.108 89.131,172.361 89.443,172.670 89.705 L 173.233 90.181 172.757 89.619 L 172.280 89.056 177.676 89.056 C 181.112 89.056,183.119 89.149,183.200 89.312 C 183.270 89.453,183.298 89.425,183.263 89.250 C 183.187 88.876,172.108 88.640,172.108 89.012 M191.193 88.992 C 192.266 89.039,193.955 89.038,194.946 88.991 C 195.937 88.944,195.059 88.905,192.996 88.906 C 190.932 88.906,190.121 88.945,191.193 88.992 M205.202 88.992 C 206.275 89.039,207.963 89.038,208.955 88.991 C 209.946 88.944,209.068 88.905,207.004 88.906 C 204.941 88.906,204.130 88.945,205.202 88.992 M216.750 89.072 C 216.659 89.219,216.653 89.407,216.735 89.489 C 216.818 89.572,216.886 89.508,216.886 89.348 C 216.886 89.134,218.342 89.056,222.303 89.056 L 227.720 89.056 227.243 89.619 L 226.767 90.181 227.330 89.705 C 227.639 89.443,227.892 89.133,227.892 89.017 C 227.892 88.695,216.950 88.749,216.750 89.072 M232.559 88.993 C 232.454 89.163,288.764 89.162,369.856 88.992 C 386.504 88.957,362.449 88.901,316.400 88.867 C 270.351 88.833,232.623 88.890,232.559 88.993 M250.516 93.871 L 249.781 94.684 250.594 93.949 C 251.041 93.545,251.407 93.179,251.407 93.136 C 251.407 92.943,251.201 93.113,250.516 93.871 M148.843 93.387 C 148.843 93.430,149.209 93.795,149.656 94.200 L 150.469 94.934 149.734 94.121 C 149.049 93.363,148.843 93.193,148.843 93.387 M152.345 97.139 C 152.345 97.182,152.711 97.548,153.158 97.952 L 153.971 98.687 153.237 97.874 C 152.552 97.116,152.345 96.946,152.345 97.139 M246.763 97.874 L 246.029 98.687 246.842 97.952 C 247.289 97.548,247.655 97.182,247.655 97.139 C 247.655 96.946,247.448 97.116,246.763 97.874 M155.847 100.891 C 155.847 100.934,156.213 101.300,156.660 101.704 L 157.473 102.439 156.739 101.626 C 156.054 100.868,155.847 100.698,155.847 100.891 M243.261 101.626 L 242.527 102.439 243.340 101.704 C 243.787 101.300,244.153 100.934,244.153 100.891 C 244.153 100.698,243.946 100.868,243.261 101.626 M159.350 104.644 C 159.350 104.687,159.715 105.053,160.163 105.457 L 160.976 106.191 160.241 105.378 C 159.556 104.621,159.350 104.450,159.350 104.644 M239.759 105.378 L 239.024 106.191 239.837 105.457 C 240.285 105.053,240.650 104.687,240.650 104.644 C 240.650 104.450,240.444 104.621,239.759 105.378 M162.852 108.396 C 162.852 108.439,163.218 108.805,163.665 109.209 L 164.478 109.944 163.743 109.131 C 163.058 108.373,162.852 108.203,162.852 108.396 M236.257 109.131 L 235.522 109.944 236.335 109.209 C 236.782 108.805,237.148 108.439,237.148 108.396 C 237.148 108.203,236.942 108.373,236.257 109.131 M166.354 112.148 C 166.354 112.191,166.720 112.557,167.167 112.961 L 167.980 113.696 167.245 112.883 C 166.560 112.125,166.354 111.955,166.354 112.148 M232.755 112.883 L 232.020 113.696 232.833 112.961 C 233.280 112.557,233.646 112.191,233.646 112.148 C 233.646 111.955,233.440 112.125,232.755 112.883 M256.223 128.002 C 256.463 128.065,256.857 128.065,257.098 128.002 C 257.339 127.939,257.142 127.888,256.660 127.888 C 256.179 127.888,255.982 127.939,256.223 128.002 M259.725 128.252 C 259.966 128.315,260.360 128.315,260.600 128.252 C 260.841 128.190,260.644 128.138,260.163 128.138 C 259.681 128.138,259.484 128.190,259.725 128.252 M136.148 128.503 C 136.388 128.566,136.782 128.566,137.023 128.503 C 137.264 128.440,137.067 128.388,136.585 128.388 C 136.104 128.388,135.907 128.440,136.148 128.503 M263.227 128.503 C 263.468 128.566,263.862 128.566,264.103 128.503 C 264.343 128.440,264.146 128.388,263.665 128.388 C 263.183 128.388,262.986 128.440,263.227 128.503 M39.317 177.799 C 61.010 177.834,96.582 177.834,118.366 177.799 C 140.150 177.763,122.402 177.735,78.924 177.735 C 35.447 177.735,17.624 177.763,39.317 177.799 M164.681 177.798 C 166.857 177.840,170.346 177.840,172.436 177.798 C 174.525 177.756,172.745 177.722,168.480 177.722 C 164.215 177.722,162.505 177.757,164.681 177.798 M183.940 177.797 C 185.150 177.843,187.064 177.843,188.192 177.797 C 189.321 177.751,188.330 177.713,185.991 177.713 C 183.652 177.714,182.729 177.751,183.940 177.797 M198.447 177.797 C 199.381 177.845,200.845 177.845,201.699 177.796 C 202.553 177.747,201.789 177.708,200.000 177.708 C 198.211 177.709,197.512 177.748,198.447 177.797 M211.957 177.797 C 213.168 177.843,215.082 177.843,216.210 177.797 C 217.338 177.751,216.348 177.713,214.009 177.713 C 211.670 177.714,210.747 177.751,211.957 177.797 M227.720 177.798 C 229.896 177.840,233.386 177.840,235.475 177.798 C 237.565 177.756,235.785 177.722,231.520 177.722 C 227.255 177.722,225.545 177.757,227.720 177.798 M281.468 177.799 C 303.161 177.834,338.733 177.834,360.518 177.799 C 382.302 177.763,364.553 177.735,321.076 177.735 C 277.598 177.735,259.775 177.763,281.468 177.799 " stroke="none" fill="#fcb4b4" fill-rule="evenodd"></path></g></svg>