<svg xmlns="http://www.w3.org/2000/svg" width="64" height="64"><path fill="#F46C60" d="M2 2l4.433 5.938 1.432-1.559z"/><path fill="#FFE12C" d="M9.086 11.492l2.343-2.453-3.954-2.953-1.042 1.852z"/><path fill="#D3FF75" d="M11.633 14.904l3.514-3.09-4.031-3.009-2.03 2.687z"/><path fill="#59FFBA" d="M14.078 18.182l5.042-3.403-4.215-3.146-3.272 3.271z"/><path fill="#75D6FF" d="M16.429 21.332l6.534-3.686-4.113-3.07-4.771 3.605 2.35 3.151z"/><path fill="#C28FEF" d="M22.963 17.646l-6.698 3.465 4.059 5.442 4.857-4.856 1.371-1.373z"/><path fill="#E84D88" d="M32.339 17.773s4.222-7.141 22.184-8.824c-18.286-1.924-23.563 4.66-23.563 4.66s.71 2.719 1.379 4.164z"/><path fill="#E84D88" d="M31.142 18.771s9.039-6.307 25.127-5.188l-14.678 7.148s8.442 1.178 19.828 1.871l-11.884 3.939s4.245 2.635 11.753 5.115l-8.013 1.221s6.33.377 8.725 6.16l-5.524-.375s2.455 5.887 5.524 9.309l-5.208-2.949S59.771 50.083 62 55.135l-5.427-1.561C59.105 59.436 61.374 62 61.374 62c-13.581-4.189-30.232-43.229-30.232-43.229z"/><path fill="#FF8FA8" d="M29.376 20.369s11.938-5.418 28.682-1.598L39.825 22.33s12.196.617 19.629 5.793l-11.686.02s7.326 1.684 10.63 7.064l-6.889-.73s7.508 3.213 10.49 9.576l-7.29-3.789s5.793 3.072 5.007 13.396l-4.234-8.637s1.571 10.66 4.751 13.189l-4.391-.148c1.996 2.213 3 5.936 3 5.936h-2.574L29.376 20.369z"/><path fill="#99A8AE" d="M28.18 18.992s-.646-4.396 2.599-10.861c0 0 4.117 5.098 5.103 14.188l-7.702-3.327z"/><path fill="#E6EBEF" d="M10.407 53.887c1.466 1.043 5.023-2.992 9.015-3.738 15.011-2.82 12.235-8.572 12.235-8.572 4.068 5.148-2.176 19.111-5.767 22.424h30.378c-.218-39.952-25.126-45.23-25.126-45.23C30.299 11.539 24.123 8 24.123 8c-1.851 4.486-1.003 12.451-1.003 12.451-3.109 5.471-18.911 20.326-20.748 22.553-1.842 2.225 3.75 8.816 3.75 8.816 1.555.184 3.493 1.504 4.285 2.067z"/><path fill="#99A8AE" d="M15.13 51.977c.803-.619 2.713-1.771 5.619-2.436 1.959-.447 3.903-.988 5.691-1.803 1.777-.805 3.446-1.928 4.376-3.555.925-1.617.938-3.693.181-5.525 1.117 1.645 1.475 3.93.542 5.871-.913 1.951-2.776 3.25-4.651 4.117-1.91.869-3.938 1.375-5.978 1.699-2.477.395-4.847 1.218-5.78 1.632zm-8.907-6.151c-.518.367-1.782.641-2.164.145-.384-.496.263-1.578.778-1.943a1.199 1.199 0 0 1 1.626.238 1.085 1.085 0 0 1-.24 1.56zm9.692-2.717c-.117 2.305-1.275 4.566-3.057 6.209a9.679 9.679 0 0 1-3.109 1.891 9.75 9.75 0 0 1-3.557.605c2.281-.693 4.355-1.664 5.988-3.18.822-.742 1.535-1.6 2.155-2.525.606-.937 1.156-1.925 1.58-3z"/><path fill="#302C3B" d="M16.39 35.15s.912-.672 1.736-.508c0 0-1.129 1.119-.281 2.857 0 0 .916-2.105 2.492-2.234 0 0-1.077 1.531.3 2.928 0 0 .288-2.131 2.331-2.77 0 0-.286 1.117.711 2.451 0 0-.309-1.926 1.089-2.861 1.399-.938 2.954-1.451 3.747-3.848 0 0-3.401 3.484-8.095 2.521-1.218-.248-3.048-.579-4.03 1.464z"/><path fill="#99A8AE" d="M25.446 21.641c-1.659-2.174-.592-8.402-.389-9.281.236-1.025 5.779 2.828 4.257 9.525-.134.605-.424 1.17-1.003 1.162-.586-.018-.592-1.697-.301-2.783.289-1.094-.4-.027-.65.723-.252.762-.451.162-.401-.637.052-.797-.584.799-.431 1.662.152.855.038 1.097-1.082-.371zM5.002 42.088c-.526.322-.433.521.029.35s2.716-.744 2.905 1.639c0 0 .127 1.066.412.008.284-1.065-.392-3.81-3.346-1.997z"/><path fill="#E84D88" d="M22.962 18.031s2.719 11.049 13.52 16.592c-.001 0-26.626-5.871-13.52-16.592zm8.18.74s6.789 17.969 20.78 23.045c-13.819-13.175-10.398-20.625-21.399-25.81 0 0-.051 1.318.619 2.765z"/><path fill="#99A8AE" d="M31.657 41.576S37.98 47.654 33.397 64H25.89c.001 0 9.359-13.211 5.767-22.424z"/></svg>