<svg xmlns="http://www.w3.org/2000/svg" width="64" height="64"><circle fill="#FDCA47" cx="32" cy="32" r="30"/><path fill="#F9B700" d="M51.654 9.346C56.226 14.611 59 21.479 59 29c0 16.568-13.432 30-30 30a29.87 29.87 0 0 1-19.655-7.346C14.846 57.989 22.952 62 32 62c16.568 0 30-13.432 30-30 0-9.048-4.012-17.153-10.346-22.654z"/><path fill-rule="evenodd" clip-rule="evenodd" fill="#FFE8BB" d="M6.418 20.5C5.302 24.241 13 11 25 6.084c5.834-2.391-13.832-1.5-18.582 14.416z"/><path fill="#302C3B" d="M28.086 28.057c-4.213-7.953-12.695-7.951-16.91 0-.209.4.34.58 1.01 1.035 4.225-3.32 11.059-3.014 14.891-.002.67-.453 1.216-.633 1.009-1.033zm24.738 0c-4.215-7.953-12.697-7.951-16.912 0-.207.4.34.58 1.01 1.035 4.225-3.32 11.059-3.014 14.891-.002.669-.453 1.218-.633 1.011-1.033z"/><path fill="#E8A329" d="M9.276 51.552s.449.605 1.298 1.435c2.667.64 5.563-2.145 6.776-4.746 0-.001-.802-5.289-8.074 3.311zm45.546-.11s-.488.665-1.337 1.494c-2.667.64-5.624-2.139-6.837-4.74 0 0 .903-5.353 8.174 3.246z"/><path fill="#302C3B" d="M51 37.789c0-.893-.529-2.01-2.037-2.297C45.092 34.756 39.373 34 32 34h-.002c-7.37 0-13.091.756-16.961 1.492-1.508.287-2.037 1.404-2.037 2.297C13 45.867 19.271 54 31.999 54H32c12.729 0 19-8.133 19-16.211z"/><path fill="#1A1626" d="M33.844 42c-.578-.012-1.47.455-1.144 1.688.163.621 1.191 1.375 1.191 2.381 0 2.045-3.783 2.045-3.783 0 0-1.006 1.027-1.76 1.193-2.381.327-1.232-.566-1.699-1.146-1.688-1.574.037-4.156 1.498-4.156 3.969C25.999 48.748 28.686 51 32 51c3.31 0 5.998-2.252 5.998-5.031 0-2.471-2.582-3.932-4.154-3.969z"/><path fill="#F46C60" d="M24 50.082c2.313 1.051 4.979 1.668 8 1.668s5.687-.617 8-1.668c-2.23-1.139-4.887-1.832-8-1.832-3.115 0-5.768.693-8 1.832z"/><path fill="#FFF" d="M46.504 38.037C43.996 37.66 38.688 37 31.999 37c-6.688 0-11.994.66-14.503 1.037-1.479.221-1.568.76-1.466 1.52.062.451.156 1 .302 1.588.162.652.291.824 1.447.836 2.221.027 26.222.027 28.444 0 1.156-.012 1.281-.184 1.445-.836.145-.588.242-1.137.301-1.588.105-.76.011-1.299-1.465-1.52z"/><path fill="#75D6FF" d="M16.913 28.352C9.831 32.25 4.804 36.536 2.719 41.008c-1.771 3.799-.157 8.306 3.605 10.06 3.765 1.756 8.252.094 10.023-3.704 2.086-4.473 2.109-11.204.566-19.012z"/><path opacity=".3" fill="#0FB4D4" d="M17.955 39.718c-.275 1.333-.655 2.554-1.161 3.641-1.771 3.798-6.236 5.471-9.971 3.729-2.384-1.111-3.88-3.345-4.203-5.802-1.572 3.74.031 8.068 3.704 9.782 3.765 1.756 8.252.094 10.023-3.704.975-2.092 1.482-4.69 1.608-7.646z"/><path opacity=".5" fill="#FFF" d="M7.761 38.446c-1.919-1.745 5.898-6.931 7.452-7.758 1.409-.748-3.926 10.966-7.452 7.758z"/><path fill="#75D6FF" d="M47.093 28.318c-1.565 7.926-1.513 14.525.57 18.993 1.771 3.796 6.257 5.455 10.016 3.702 3.761-1.754 5.372-6.256 3.603-10.052-2.085-4.467-7.221-8.808-14.189-12.643z"/><path opacity=".3" fill="#0FB4D4" d="M56.461 34.82c.846 1.067 1.535 2.143 2.041 3.229 1.771 3.795.182 8.286-3.549 10.026-2.383 1.111-5.053.821-7.141-.509 1.854 3.605 6.195 5.158 9.866 3.447 3.761-1.754 5.372-6.256 3.603-10.052-.974-2.088-2.638-4.145-4.82-6.141z"/><path opacity=".5" fill="#FFF" d="M48.941 41.809c-2.569.348-1.518-8.967-1.152-10.688.332-1.558 5.872 10.049 1.152 10.688z"/><path fill="#917524" d="M57.813 22.036c-3.188-4.168-8.718-7.32-12.319-7.269-.761.012-1.883 2.519-1.247 2.592 4.875.557 9.777 2.756 12.965 6.412.427.492 1.079-1.109.601-1.735zm-51.625.003c3.186-4.171 8.715-7.322 12.317-7.271.76.01 1.883 2.52 1.247 2.591-4.875.559-9.778 2.756-12.964 6.412-.427.495-1.08-1.107-.6-1.732z"/></svg>