<?xml version="1.0" encoding="utf-8"?>
<!-- Generator: Adobe Illustrator 24.0.1, SVG Export Plug-In . SVG Version: 6.00 Build 0)  -->
<svg version="1.1" id="图层_1" xmlns="http://www.w3.org/2000/svg" xmlns:xlink="http://www.w3.org/1999/xlink" x="0px" y="0px"
	 viewBox="0 0 357.52 36.85" style="enable-background:new 0 0 357.52 36.85;" xml:space="preserve">
<style type="text/css">
	.st0{enable-background:new    ;}
</style>
<g class="st0">
	<path d="M49.07,24.16c0.75,0.81,2.13,1.53,3.42,1.53c2.28,0,4.08-1.62,4.29-6.51c-1.08,1.44-2.97,2.25-4.26,2.25
		c-3.75,0-6.54-2.22-6.54-7.02c0-4.74,3.36-7.56,7.35-7.56c4.23,0,8.34,3.21,8.34,11.31S57.41,30,52.85,30c-3,0-5.16-1.26-6.57-2.67
		L49.07,24.16z M56.69,15.58c-0.45-3.69-1.86-4.74-3.24-4.74c-1.41,0-2.61,0.99-2.61,3.57c0,2.4,1.2,3.27,2.7,3.27
		C54.62,17.68,55.82,17.11,56.69,15.58z"/>
	<path d="M65.21,15.73c0-1.86,1.32-3.3,3.18-3.3c1.83,0,3.18,1.44,3.18,3.3s-1.35,3.3-3.18,3.3C66.53,19.03,65.21,17.59,65.21,15.73
		z M65.21,26.68c0-1.83,1.32-3.3,3.18-3.3c1.83,0,3.18,1.47,3.18,3.3c0,1.86-1.35,3.33-3.18,3.33C66.53,30,65.21,28.54,65.21,26.68z
		"/>
	<path d="M74.87,18.31c0-7.68,3.18-11.46,7.89-11.46s7.92,3.84,7.92,11.46c0,7.68-3.21,11.7-7.92,11.7S74.87,25.99,74.87,18.31z
		 M85.64,18.31c0-6.09-1.29-7.35-2.88-7.35s-2.85,1.26-2.85,7.35c0,6.12,1.26,7.56,2.85,7.56S85.64,24.43,85.64,18.31z"/>
	<path d="M93.14,18.31c0-7.68,3.18-11.46,7.89-11.46s7.92,3.84,7.92,11.46c0,7.68-3.21,11.7-7.92,11.7S93.14,25.99,93.14,18.31z
		 M103.91,18.31c0-6.09-1.29-7.35-2.88-7.35s-2.85,1.26-2.85,7.35c0,6.12,1.26,7.56,2.85,7.56S103.91,24.43,103.91,18.31z"/>
	<path d="M123.29,24.45h-6.6l-1.29,5.13h-5.46l6.93-22.32h6.42l6.93,22.32h-5.64L123.29,24.45z M122.27,20.32l-0.48-1.89
		c-0.6-2.22-1.17-4.89-1.77-7.17h-0.12c-0.54,2.34-1.14,4.95-1.71,7.17l-0.48,1.89H122.27z"/>
	<path d="M132.56,7.27h5.79l3.54,9.63c0.45,1.29,0.81,2.7,1.23,4.08h0.15c0.45-1.38,0.81-2.79,1.23-4.08l3.42-9.63h5.82v22.32h-4.89
		v-7.65c0-2.22,0.42-5.55,0.69-7.74h-0.12l-1.86,5.34l-3,8.16h-2.94l-3.03-8.16l-1.8-5.34h-0.12c0.27,2.19,0.69,5.52,0.69,7.74v7.65
		h-4.8V7.27z"/>
	<path d="M166.01,23.26v-6.57h-2.31v-3.96l2.61-0.21l0.6-4.5h4.44v4.5h4.02v4.17h-4.02v6.51c0,1.89,0.9,2.64,2.16,2.64
		c0.54,0,1.14-0.18,1.56-0.3l0.84,3.84c-0.9,0.27-2.13,0.63-3.87,0.63C167.75,30,166.01,27.31,166.01,23.26z"/>
	<path d="M177.05,21.07c0-5.67,4.02-8.97,8.37-8.97c4.32,0,8.34,3.3,8.34,8.97c0,5.64-4.02,8.94-8.34,8.94
		C181.07,30,177.05,26.7,177.05,21.07z M188.3,21.07c0-2.85-0.9-4.65-2.88-4.65c-2.01,0-2.91,1.8-2.91,4.65
		c0,2.82,0.9,4.62,2.91,4.62C187.4,25.68,188.3,23.89,188.3,21.07z"/>
	<path d="M215.78,12.67c-0.72-0.78-2.1-1.56-3.33-1.56c-2.31,0-4.14,1.65-4.35,6.51c1.11-1.41,3-2.19,4.26-2.19
		c3.72,0,6.54,2.16,6.54,7.02c0,4.74-3.36,7.56-7.35,7.56c-4.2,0-8.34-3.27-8.34-11.4c0-8.07,4.26-11.76,8.88-11.76
		c2.94,0,5.1,1.23,6.51,2.67L215.78,12.67z M214.01,22.45c0-2.46-1.2-3.27-2.67-3.27c-1.11,0-2.25,0.54-3.15,2.01
		c0.45,3.72,1.83,4.83,3.24,4.83S214.01,24.97,214.01,22.45z"/>
	<path d="M222.2,15.73c0-1.86,1.32-3.3,3.18-3.3c1.83,0,3.18,1.44,3.18,3.3s-1.35,3.3-3.18,3.3
		C223.52,19.03,222.2,17.59,222.2,15.73z M222.2,26.68c0-1.83,1.32-3.3,3.18-3.3c1.83,0,3.18,1.47,3.18,3.3
		c0,1.86-1.35,3.33-3.18,3.33C223.52,30,222.2,28.54,222.2,26.68z"/>
	<path d="M231.86,18.31c0-7.68,3.18-11.46,7.89-11.46c4.71,0,7.92,3.84,7.92,11.46c0,7.68-3.21,11.7-7.92,11.7
		C235.04,30,231.86,25.99,231.86,18.31z M242.63,18.31c0-6.09-1.29-7.35-2.88-7.35c-1.59,0-2.85,1.26-2.85,7.35
		c0,6.12,1.26,7.56,2.85,7.56C241.34,25.87,242.63,24.43,242.63,18.31z"/>
	<path d="M250.13,18.31c0-7.68,3.18-11.46,7.89-11.46c4.71,0,7.92,3.84,7.92,11.46c0,7.68-3.21,11.7-7.92,11.7
		C253.31,30,250.13,25.99,250.13,18.31z M260.9,18.31c0-6.09-1.29-7.35-2.88-7.35c-1.59,0-2.85,1.26-2.85,7.35
		c0,6.12,1.26,7.56,2.85,7.56C259.61,25.87,260.9,24.43,260.9,18.31z"/>
	<path d="M269.75,7.27h7.83c4.92,0,8.97,1.74,8.97,7.26c0,5.31-4.11,7.65-8.82,7.65h-2.61v7.41h-5.37V7.27z M277.46,17.95
		c2.61,0,3.87-1.23,3.87-3.42c0-2.25-1.44-3.03-4.02-3.03h-2.19v6.45H277.46z"/>
	<path d="M290.36,7.27h5.79l3.54,9.63c0.45,1.29,0.81,2.7,1.23,4.08h0.15c0.45-1.38,0.81-2.79,1.23-4.08l3.42-9.63h5.82v22.32h-4.89
		v-7.65c0-2.22,0.42-5.55,0.69-7.74h-0.12l-1.86,5.34l-3,8.16h-2.94l-3.03-8.16l-1.8-5.34h-0.12c0.27,2.19,0.69,5.52,0.69,7.74v7.65
		h-4.8V7.27z"/>
</g>
</svg>
