<?xml version="1.0" encoding="utf-8"?>
<!-- Generator: Adobe Illustrator 24.0.1, SVG Export Plug-In . SVG Version: 6.00 Build 0)  -->
<svg version="1.1" id="图层_1" xmlns="http://www.w3.org/2000/svg" xmlns:xlink="http://www.w3.org/1999/xlink" x="0px" y="0px"
	 viewBox="0 0 1050.39 69.72" style="enable-background:new 0 0 1050.39 69.72;" xml:space="preserve">
<style type="text/css">
	.st0{enable-background:new    ;}
</style>
<g class="st0">
	<path d="M24.17,7.98h15.6c9.24,0,16.62,2.46,16.62,11.04c0,3.96-2.22,8.28-5.82,9.66v0.24c4.5,1.2,7.92,4.56,7.92,10.5
		c0,9.12-7.74,13.2-17.46,13.2H24.17V7.98z M39.35,25.68c4.56,0,6.6-1.98,6.6-5.04c0-3.18-2.1-4.5-6.6-4.5h-4.44v9.54H39.35z
		 M40.25,44.4c5.16,0,7.8-1.86,7.8-5.7c0-3.66-2.58-5.1-7.8-5.1h-5.34v10.8H40.25z"/>
	<path d="M64.67,39.6V18.48h10.68v19.8c0,4.74,1.26,6.06,3.96,6.06c2.4,0,3.9-0.96,5.7-3.48V18.48h10.68v34.14h-8.7l-0.78-4.68
		h-0.24c-2.82,3.36-6,5.52-10.68,5.52C67.85,53.46,64.67,48.12,64.67,39.6z"/>
	<path d="M128.03,17.16c0-7.2,3.42-13.32,12.9-13.32c3,0,5.46,0.6,6.96,1.2l-1.92,7.86c-1.08-0.42-2.34-0.72-3.48-0.72
		c-2.34,0-3.78,1.26-3.78,4.68v1.62h6.06v8.34h-6.06v25.8h-10.68v-25.8h-11.28v25.8h-10.68v-25.8h-4.56V18.9l4.56-0.36v-1.2
		c0-6.96,3.66-12.84,13.2-12.84c3,0,5.64,0.6,7.26,1.26l-1.92,7.86c-1.08-0.48-2.1-0.78-3.96-0.78c-2.16,0-3.9,1.38-3.9,4.44v1.2
		h11.28V17.16z M149.27,8.28c0-3.24,2.58-5.52,6.12-5.52c3.54,0,6.12,2.28,6.12,5.52c0,3.18-2.58,5.46-6.12,5.46
		C151.85,13.74,149.27,11.46,149.27,8.28z M150.05,18.48h10.74v34.14h-10.74V18.48z"/>
	<path d="M169.31,18.48h8.7l0.72,4.26h0.24c2.82-2.76,6.3-5.1,10.92-5.1c7.44,0,10.62,5.34,10.62,13.86v21.12h-10.68v-19.8
		c0-4.68-1.26-6.06-3.96-6.06c-2.4,0-3.84,1.08-5.94,3.06v22.8h-10.62V18.48z"/>
	<path d="M206.69,58.38c0-2.82,1.68-5.1,4.86-6.72v-0.3c-1.8-1.2-3.12-3-3.12-5.88c0-2.4,1.56-4.8,3.78-6.36v-0.24
		c-2.4-1.68-4.62-4.86-4.62-8.82c0-8.34,6.9-12.42,14.28-12.42c1.98,0,3.84,0.3,5.4,0.84h12.54v7.74h-5.28
		c0.54,0.96,0.96,2.52,0.96,4.14c0,7.98-6.06,11.46-13.62,11.46c-1.14,0-2.52-0.18-4.02-0.6c-0.78,0.72-1.08,1.26-1.08,2.4
		c0,1.56,1.38,2.28,5.04,2.28h5.4c8.4,0,13.14,2.58,13.14,8.76c0,7.2-7.44,12.3-19.32,12.3C213.17,66.96,206.69,64.5,206.69,58.38z
		 M230.15,56.52c0-2.04-1.8-2.46-4.98-2.46h-3.24c-2.46,0-3.78-0.12-4.86-0.42c-1.08,0.96-1.62,1.92-1.62,3.06
		c0,2.4,2.88,3.6,7.26,3.6C227.09,60.3,230.15,58.68,230.15,56.52z M226.19,30.06c0-3.48-1.8-5.28-4.32-5.28
		c-2.46,0-4.32,1.8-4.32,5.28c0,3.54,1.86,5.34,4.32,5.34C224.39,35.4,226.19,33.6,226.19,30.06z"/>
	<path d="M260.33,7.98h15.66c9.84,0,17.94,3.48,17.94,14.52c0,10.62-8.22,15.3-17.64,15.3h-5.22v14.82h-10.74V7.98z M275.75,29.34
		c5.22,0,7.74-2.46,7.74-6.84c0-4.5-2.88-6.06-8.04-6.06h-4.38v12.9H275.75z"/>
	<path d="M297.35,35.58c0-11.34,8.04-17.94,16.74-17.94c8.64,0,16.68,6.6,16.68,17.94c0,11.28-8.04,17.88-16.68,17.88
		C305.39,53.46,297.35,46.86,297.35,35.58z M319.85,35.58c0-5.7-1.8-9.3-5.76-9.3c-4.02,0-5.82,3.6-5.82,9.3
		c0,5.64,1.8,9.24,5.82,9.24C318.05,44.82,319.85,41.22,319.85,35.58z"/>
	<path d="M337.49,41.52V4.68h10.62v37.26c0,2.22,1.08,2.88,1.92,2.88c0.36,0,0.6,0,1.2-0.12l1.26,7.86c-1.14,0.48-2.94,0.9-5.28,0.9
		C339.89,53.46,337.49,48.66,337.49,41.52z"/>
	<path d="M356.63,8.28c0-3.24,2.52-5.52,6.12-5.52c3.54,0,6.06,2.28,6.06,5.52c0,3.18-2.52,5.46-6.06,5.46
		C359.15,13.74,356.63,11.46,356.63,8.28z M357.41,18.48h10.62v34.14h-10.62V18.48z"/>
	<path d="M373.73,48.66l4.74-6.66c3.12,2.4,5.94,3.6,8.64,3.6c2.82,0,4.02-1.02,4.02-2.7c0-2.04-3.3-3-6.78-4.38
		c-4.08-1.62-8.88-4.38-8.88-10.02c0-6.48,5.28-10.86,13.2-10.86c5.4,0,9.24,2.16,12.24,4.38l-4.8,6.36
		c-2.4-1.68-4.8-2.88-7.08-2.88c-2.4,0-3.6,0.84-3.6,2.46c0,2.04,3.12,2.82,6.66,4.08c4.26,1.62,9,4.08,9,10.26
		c0,6.3-4.92,11.16-14.22,11.16C382.43,53.46,377.15,51.54,373.73,48.66z"/>
	<path d="M407.27,4.68h10.62V16.2l-0.48,6.06c2.46-2.28,5.82-4.62,10.44-4.62c7.44,0,10.62,5.34,10.62,13.86v21.12h-10.68v-19.8
		c0-4.68-1.26-6.06-3.96-6.06c-2.4,0-3.84,1.08-5.94,3.06v22.8h-10.62V4.68z"/>
	<path d="M498.65,53.46c-3.72-0.66-7.74-2.28-11.64-4.44c-3.78,2.76-8.52,4.44-14.1,4.44c-10.02,0-15.12-6.06-15.12-12.84
		c0-6.24,3.78-9.84,8.1-12.54c-1.74-3.24-2.7-6.36-2.7-9.18c0-6.36,4.74-11.76,12.42-11.76c6.84,0,11.28,4.02,11.28,10.26
		c0,5.88-4.56,9.48-9.24,12.6c2.46,2.76,5.46,5.34,8.58,7.62c2.16-2.88,3.9-6.36,5.04-10.44h9.72c-1.62,5.4-4.02,10.38-7.44,14.94
		c2.76,1.38,5.4,2.4,7.62,2.7L498.65,53.46z M474.23,45.3c1.68,0,3.48-0.54,5.22-1.5c-3.3-2.64-6.3-5.64-8.88-8.76
		c-1.56,1.5-2.64,3.06-2.64,4.92C467.93,43.14,470.39,45.3,474.23,45.3z M473.33,23.94c3.06-1.8,5.4-3.66,5.4-6.54
		c0-2.04-0.96-3.24-2.94-3.24c-2.1,0-3.84,1.74-3.84,4.74C471.95,20.46,472.43,22.2,473.33,23.94z"/>
	<path d="M521.39,7.98h10.74v16.98h14.7V7.98h10.62v44.64h-10.62V34.26h-14.7v18.36h-10.74V7.98z"/>
	<path d="M565.06,35.58c0-11.1,7.92-17.94,16.2-17.94c9.84,0,14.64,7.14,14.64,16.5c0,1.86-0.24,3.78-0.48,4.56h-20.04
		c0.96,4.68,4.2,6.6,8.52,6.6c2.46,0,4.74-0.72,7.2-2.16l3.54,6.42c-3.54,2.52-8.22,3.9-12.24,3.9
		C572.63,53.46,565.06,46.86,565.06,35.58z M586.84,31.74c0-3.42-1.5-5.94-5.4-5.94c-2.94,0-5.52,1.86-6.24,5.94H586.84z"/>
	<path d="M600.47,43.08c0-7.2,5.64-11.1,18.96-12.54c-0.24-2.76-1.68-4.38-5.16-4.38c-2.7,0-5.52,1.08-8.94,3l-3.72-7.02
		c4.5-2.7,9.36-4.5,14.7-4.5c8.82,0,13.8,4.92,13.8,15.6v19.38h-8.7l-0.78-3.42h-0.24c-2.82,2.52-6,4.26-9.78,4.26
		C604.31,53.46,600.47,48.78,600.47,43.08z M619.42,42.48v-5.46c-6.66,0.9-8.82,2.82-8.82,5.22c0,1.98,1.44,2.94,3.66,2.94
		C616.42,45.18,617.86,44.16,619.42,42.48z"/>
	<path d="M636.58,35.58c0-11.22,7.02-17.94,14.1-17.94c3.78,0,6,1.38,8.22,3.54l-0.42-5.1V4.68h10.74v47.94h-8.7l-0.78-3.3h-0.24
		c-2.4,2.4-5.7,4.14-8.94,4.14C642.04,53.46,636.58,46.68,636.58,35.58z M658.48,41.82V28.38c-1.62-1.5-3.48-2.04-5.28-2.04
		c-2.94,0-5.64,2.76-5.64,9.06c0,6.54,2.16,9.3,5.82,9.3C655.42,44.7,657.04,44.04,658.48,41.82z"/>
	<path d="M677.8,41.52V4.68h10.62v37.26c0,2.22,1.08,2.88,1.92,2.88c0.36,0,0.6,0,1.2-0.12l1.26,7.86c-1.14,0.48-2.94,0.9-5.28,0.9
		C680.2,53.46,677.8,48.66,677.8,41.52z"/>
	<path d="M696.94,8.28c0-3.24,2.52-5.52,6.12-5.52c3.54,0,6.06,2.28,6.06,5.52c0,3.18-2.52,5.46-6.06,5.46
		C699.46,13.74,696.94,11.46,696.94,8.28z M697.72,18.48h10.62v34.14h-10.62V18.48z"/>
	<path d="M714.88,58.38c0-2.82,1.68-5.1,4.86-6.72v-0.3c-1.8-1.2-3.12-3-3.12-5.88c0-2.4,1.56-4.8,3.78-6.36v-0.24
		c-2.4-1.68-4.62-4.86-4.62-8.82c0-8.34,6.9-12.42,14.28-12.42c1.98,0,3.84,0.3,5.4,0.84H748v7.74h-5.28
		c0.54,0.96,0.96,2.52,0.96,4.14c0,7.98-6.06,11.46-13.62,11.46c-1.14,0-2.52-0.18-4.02-0.6c-0.78,0.72-1.08,1.26-1.08,2.4
		c0,1.56,1.38,2.28,5.04,2.28h5.4c8.4,0,13.14,2.58,13.14,8.76c0,7.2-7.44,12.3-19.32,12.3C721.36,66.96,714.88,64.5,714.88,58.38z
		 M738.34,56.52c0-2.04-1.8-2.46-4.98-2.46h-3.24c-2.46,0-3.78-0.12-4.86-0.42c-1.08,0.96-1.62,1.92-1.62,3.06
		c0,2.4,2.88,3.6,7.26,3.6S738.34,58.68,738.34,56.52z M734.38,30.06c0-3.48-1.8-5.28-4.32-5.28c-2.46,0-4.32,1.8-4.32,5.28
		c0,3.54,1.86,5.34,4.32,5.34C732.58,35.4,734.38,33.6,734.38,30.06z"/>
	<path d="M753.94,4.68h10.62V16.2l-0.48,6.06c2.46-2.28,5.82-4.62,10.44-4.62c7.44,0,10.62,5.34,10.62,13.86v21.12h-10.68v-19.8
		c0-4.68-1.26-6.06-3.96-6.06c-2.4,0-3.84,1.08-5.94,3.06v22.8h-10.62V4.68z"/>
	<path d="M794.8,39.96V26.82h-4.62V18.9l5.22-0.42l1.2-9h8.88v9h8.04v8.34h-8.04v13.02c0,3.78,1.8,5.28,4.32,5.28
		c1.08,0,2.28-0.36,3.12-0.6l1.68,7.68c-1.8,0.54-4.26,1.26-7.74,1.26C798.28,53.46,794.8,48.06,794.8,39.96z"/>
	<path d="M816.46,48.66L821.2,42c3.12,2.4,5.94,3.6,8.64,3.6c2.82,0,4.02-1.02,4.02-2.7c0-2.04-3.3-3-6.78-4.38
		c-4.08-1.62-8.88-4.38-8.88-10.02c0-6.48,5.28-10.86,13.2-10.86c5.4,0,9.24,2.16,12.24,4.38l-4.8,6.36
		c-2.4-1.68-4.8-2.88-7.08-2.88c-2.4,0-3.6,0.84-3.6,2.46c0,2.04,3.12,2.82,6.66,4.08c4.26,1.62,9,4.08,9,10.26
		c0,6.3-4.92,11.16-14.22,11.16C825.16,53.46,819.88,51.54,816.46,48.66z"/>
	<path d="M862.54,30.54c0-14.88,9.96-23.4,21.3-23.4c5.82,0,10.5,2.7,13.56,5.82l-5.64,6.84c-2.22-2.04-4.56-3.48-7.74-3.48
		c-5.76,0-10.5,5.16-10.5,13.86c0,8.88,4.08,14.04,10.38,14.04c3.54,0,6.42-1.8,8.52-4.08l5.64,6.72c-3.78,4.38-8.76,6.6-14.58,6.6
		C872.14,53.46,862.54,45.66,862.54,30.54z"/>
	<path d="M903.76,41.52V4.68h10.62v37.26c0,2.22,1.08,2.88,1.92,2.88c0.36,0,0.6,0,1.2-0.12l1.26,7.86c-1.14,0.48-2.94,0.9-5.28,0.9
		C906.16,53.46,903.76,48.66,903.76,41.52z"/>
	<path d="M921.76,35.58c0-11.1,7.92-17.94,16.2-17.94c9.84,0,14.64,7.14,14.64,16.5c0,1.86-0.24,3.78-0.48,4.56h-20.04
		c0.96,4.68,4.2,6.6,8.52,6.6c2.46,0,4.74-0.72,7.2-2.16l3.54,6.42c-3.54,2.52-8.22,3.9-12.24,3.9
		C929.32,53.46,921.76,46.86,921.76,35.58z M943.54,31.74c0-3.42-1.5-5.94-5.4-5.94c-2.94,0-5.52,1.86-6.24,5.94H943.54z"/>
	<path d="M957.16,43.08c0-7.2,5.64-11.1,18.96-12.54c-0.24-2.76-1.68-4.38-5.16-4.38c-2.7,0-5.52,1.08-8.94,3l-3.72-7.02
		c4.5-2.7,9.36-4.5,14.7-4.5c8.82,0,13.8,4.92,13.8,15.6v19.38h-8.7l-0.78-3.42h-0.24c-2.82,2.52-6,4.26-9.78,4.26
		C961,53.46,957.16,48.78,957.16,43.08z M976.12,42.48v-5.46c-6.66,0.9-8.82,2.82-8.82,5.22c0,1.98,1.44,2.94,3.66,2.94
		C973.12,45.18,974.56,44.16,976.12,42.48z"/>
	<path d="M995.02,18.48h8.7l0.72,4.26h0.24c2.82-2.76,6.3-5.1,10.92-5.1c7.44,0,10.62,5.34,10.62,13.86v21.12h-10.68v-19.8
		c0-4.68-1.26-6.06-3.96-6.06c-2.4,0-3.84,1.08-5.94,3.06v22.8h-10.62V18.48z"/>
</g>
</svg>
