<?xml version="1.0" encoding="utf-8"?>
<!-- Generator: Adobe Illustrator 24.0.1, SVG Export Plug-In . SVG Version: 6.00 Build 0)  -->
<svg version="1.1" id="图层_1" xmlns="http://www.w3.org/2000/svg" xmlns:xlink="http://www.w3.org/1999/xlink" x="0px" y="0px"
	 viewBox="0 0 357.52 36.85" style="enable-background:new 0 0 357.52 36.85;" xml:space="preserve">
<style type="text/css">
	.st0{enable-background:new    ;}
</style>
<g class="st0">
	<path d="M99.97,6.88h14.25v4.44h-8.88v4.89h7.62v4.47h-7.62v8.52h-5.37V6.88z"/>
	<path d="M117.28,7.03c0-1.62,1.26-2.76,3.06-2.76c1.77,0,3.03,1.14,3.03,2.76c0,1.59-1.26,2.73-3.03,2.73
		C118.54,9.76,117.28,8.62,117.28,7.03z M117.67,12.13h5.31V29.2h-5.31V12.13z"/>
	<path d="M127.3,12.13h4.35l0.36,2.13h0.12c1.41-1.38,3.15-2.55,5.46-2.55c3.72,0,5.31,2.67,5.31,6.93V29.2h-5.34v-9.9
		c0-2.34-0.63-3.03-1.98-3.03c-1.2,0-1.92,0.54-2.97,1.53v11.4h-5.31V12.13z"/>
	<path d="M146.17,20.68c0-5.61,3.51-8.97,7.05-8.97c1.89,0,3,0.69,4.11,1.77l-0.21-2.55v-5.7h5.37V29.2h-4.35l-0.39-1.65h-0.12
		c-1.2,1.2-2.85,2.07-4.47,2.07C148.9,29.62,146.17,26.23,146.17,20.68z M157.11,23.8v-6.72c-0.81-0.75-1.74-1.02-2.64-1.02
		c-1.47,0-2.82,1.38-2.82,4.53c0,3.27,1.08,4.65,2.91,4.65C155.58,25.24,156.4,24.91,157.11,23.8z"/>
	<path d="M173.95,18.7V6.88h5.34v12.39c0,4.23,1.26,5.73,3.72,5.73c2.43,0,3.78-1.5,3.78-5.73V6.88h5.16V18.7
		c0,7.53-3,10.92-8.94,10.92C177.03,29.62,173.95,26.23,173.95,18.7z"/>
	<path d="M194.74,27.22l2.37-3.33c1.56,1.2,2.97,1.8,4.32,1.8c1.41,0,2.01-0.51,2.01-1.35c0-1.02-1.65-1.5-3.39-2.19
		c-2.04-0.81-4.44-2.19-4.44-5.01c0-3.24,2.64-5.43,6.6-5.43c2.7,0,4.62,1.08,6.12,2.19l-2.4,3.18c-1.2-0.84-2.4-1.44-3.54-1.44
		c-1.2,0-1.8,0.42-1.8,1.23c0,1.02,1.56,1.41,3.33,2.04c2.13,0.81,4.5,2.04,4.5,5.13c0,3.15-2.46,5.58-7.11,5.58
		C199.08,29.62,196.45,28.66,194.74,27.22z"/>
	<path d="M217.77,17.92c0-7.32,4.14-11.46,10.23-11.46s10.23,4.17,10.23,11.46c0,7.32-4.14,11.7-10.23,11.7
		S217.77,25.24,217.77,17.92z M232.77,17.92c0-4.32-1.83-6.87-4.77-6.87c-2.94,0-4.74,2.55-4.74,6.87c0,4.35,1.8,7.08,4.74,7.08
		C230.94,25,232.77,22.27,232.77,17.92z"/>
	<path d="M241.95,12.13h4.35l0.36,2.13h0.12c1.41-1.38,3.15-2.55,5.46-2.55c3.72,0,5.31,2.67,5.31,6.93V29.2h-5.34v-9.9
		c0-2.34-0.63-3.03-1.98-3.03c-1.2,0-1.92,0.54-2.97,1.53v11.4h-5.31V12.13z"/>
</g>
</svg>
