<?xml version="1.0" encoding="utf-8"?>
<!-- Generator: Adobe Illustrator 24.0.1, SVG Export Plug-In . SVG Version: 6.00 Build 0)  -->
<svg version="1.1" id="图层_1" xmlns="http://www.w3.org/2000/svg" xmlns:xlink="http://www.w3.org/1999/xlink" x="0px" y="0px"
	 viewBox="0 0 102.91 66.4" style="enable-background:new 0 0 102.91 66.4;" xml:space="preserve">
<style type="text/css">
	.st0{enable-background:new    ;}
</style>
<g class="st0">
	<path d="M22.33,6.69h14.25v4.44H27.7v4.89h7.62v4.47H27.7V29h-5.37V6.69z"/>
	<path d="M39.19,22.5V11.94h5.34v9.9c0,2.37,0.63,3.03,1.98,3.03c1.2,0,1.95-0.48,2.85-1.74V11.94h5.34V29h-4.35l-0.39-2.34h-0.12
		c-1.41,1.68-3,2.76-5.34,2.76C40.78,29.42,39.19,26.75,39.19,22.5z"/>
	<path d="M58.99,23.46V5.04h5.31v18.63c0,1.11,0.54,1.44,0.96,1.44c0.18,0,0.3,0,0.6-0.06l0.63,3.93c-0.57,0.24-1.47,0.45-2.64,0.45
		C60.19,29.42,58.99,27.03,58.99,23.46z"/>
	<path d="M68.95,23.46V5.04h5.31v18.63c0,1.11,0.54,1.44,0.96,1.44c0.18,0,0.3,0,0.6-0.06l0.63,3.93c-0.57,0.24-1.47,0.45-2.64,0.45
		C70.15,29.42,68.95,27.03,68.95,23.46z"/>
</g>
<g class="st0">
	<path d="M5.56,35.01h5.67l2.55,10.17c0.66,2.4,1.08,4.71,1.74,7.14h0.15c0.63-2.43,1.11-4.74,1.74-7.14l2.52-10.17h5.46
		l-6.72,22.32h-6.42L5.56,35.01z"/>
	<path d="M25.27,52.56c0-3.6,2.82-5.55,9.48-6.27c-0.12-1.38-0.84-2.19-2.58-2.19c-1.35,0-2.76,0.54-4.47,1.5l-1.86-3.51
		c2.25-1.35,4.68-2.25,7.35-2.25c4.41,0,6.9,2.46,6.9,7.8v9.69h-4.35l-0.39-1.71h-0.12c-1.41,1.26-3,2.13-4.89,2.13
		C27.19,57.75,25.27,55.41,25.27,52.56z M34.75,52.26v-2.73c-3.33,0.45-4.41,1.41-4.41,2.61c0,0.99,0.72,1.47,1.83,1.47
		C33.25,53.61,33.97,53.1,34.75,52.26z"/>
	<path d="M44.2,51.78V33.37h5.31v18.63c0,1.11,0.54,1.44,0.96,1.44c0.18,0,0.3,0,0.6-0.06l0.63,3.93c-0.57,0.24-1.47,0.45-2.64,0.45
		C45.4,57.75,44.2,55.35,44.2,51.78z"/>
	<path d="M53.2,48.81c0-5.55,3.96-8.97,8.1-8.97c4.92,0,7.32,3.57,7.32,8.25c0,0.93-0.12,1.89-0.24,2.28H58.36
		c0.48,2.34,2.1,3.3,4.26,3.3c1.23,0,2.37-0.36,3.6-1.08l1.77,3.21c-1.77,1.26-4.11,1.95-6.12,1.95
		C56.98,57.75,53.2,54.45,53.2,48.81z M64.09,46.89c0-1.71-0.75-2.97-2.7-2.97c-1.47,0-2.76,0.93-3.12,2.97H64.09z"/>
	<path d="M72.37,51v-6.57h-2.31v-3.96l2.61-0.21l0.6-4.5h4.44v4.5h4.02v4.17h-4.02v6.51c0,1.89,0.9,2.64,2.16,2.64
		c0.54,0,1.14-0.18,1.56-0.3l0.84,3.84c-0.9,0.27-2.13,0.63-3.87,0.63C74.11,57.75,72.37,55.05,72.37,51z"/>
	<path d="M83.2,55.35l2.37-3.33c1.56,1.2,2.97,1.8,4.32,1.8c1.41,0,2.01-0.51,2.01-1.35c0-1.02-1.65-1.5-3.39-2.19
		c-2.04-0.81-4.44-2.19-4.44-5.01c0-3.24,2.64-5.43,6.6-5.43c2.7,0,4.62,1.08,6.12,2.19l-2.4,3.18c-1.2-0.84-2.4-1.44-3.54-1.44
		c-1.2,0-1.8,0.42-1.8,1.23c0,1.02,1.56,1.41,3.33,2.04c2.13,0.81,4.5,2.04,4.5,5.13c0,3.15-2.46,5.58-7.11,5.58
		C87.55,57.75,84.91,56.79,83.2,55.35z"/>
</g>
</svg>
