<?xml version="1.0" encoding="utf-8"?>
<!-- Generator: Adobe Illustrator 24.0.1, SVG Export Plug-In . SVG Version: 6.00 Build 0)  -->
<svg version="1.1" id="图层_1" xmlns="http://www.w3.org/2000/svg" xmlns:xlink="http://www.w3.org/1999/xlink" x="0px" y="0px"
	 viewBox="0 0 114.39 70.05" style="enable-background:new 0 0 114.39 70.05;" xml:space="preserve">
<style type="text/css">
	.st0{enable-background:new    ;}
</style>
<g class="st0">
	<path d="M22.21,11.18H28l3.54,9.63c0.45,1.29,0.81,2.7,1.23,4.08h0.15c0.45-1.38,0.81-2.79,1.23-4.08l3.42-9.63h5.82V33.5H38.5
		v-7.65c0-2.22,0.42-5.55,0.69-7.74h-0.12l-1.86,5.34l-3,8.16h-2.94l-3.03-8.16l-1.8-5.34h-0.12c0.27,2.19,0.69,5.52,0.69,7.74v7.65
		h-4.8V11.18z"/>
	<path d="M47.71,11.33c0-1.62,1.26-2.76,3.06-2.76c1.77,0,3.03,1.14,3.03,2.76c0,1.59-1.26,2.73-3.03,2.73
		C48.97,14.06,47.71,12.92,47.71,11.33z M48.1,16.43h5.31V33.5H48.1V16.43z"/>
	<path d="M57.73,16.43h4.35l0.36,2.13h0.12c1.41-1.38,3.15-2.55,5.46-2.55c3.72,0,5.31,2.67,5.31,6.93V33.5h-5.34v-9.9
		c0-2.34-0.63-3.03-1.98-3.03c-1.2,0-1.92,0.54-2.97,1.53v11.4h-5.31V16.43z"/>
	<path d="M77.08,11.33c0-1.62,1.26-2.76,3.06-2.76c1.77,0,3.03,1.14,3.03,2.76c0,1.59-1.26,2.73-3.03,2.73
		C78.34,14.06,77.08,12.92,77.08,11.33z M77.47,16.43h5.31V33.5h-5.31V16.43z"/>
</g>
<g class="st0">
	<path d="M11.01,38.73h5.67l2.55,10.17c0.66,2.4,1.08,4.71,1.74,7.14h0.15c0.63-2.43,1.11-4.74,1.74-7.14l2.52-10.17h5.46
		l-6.72,22.32H17.7L11.01,38.73z"/>
	<path d="M30.72,56.28c0-3.6,2.82-5.55,9.48-6.27c-0.12-1.38-0.84-2.19-2.58-2.19c-1.35,0-2.76,0.54-4.47,1.5l-1.86-3.51
		c2.25-1.35,4.68-2.25,7.35-2.25c4.41,0,6.9,2.46,6.9,7.8v9.69h-4.35l-0.39-1.71h-0.12c-1.41,1.26-3,2.13-4.89,2.13
		C32.64,61.47,30.72,59.13,30.72,56.28z M40.2,55.98v-2.73c-3.33,0.45-4.41,1.41-4.41,2.61c0,0.99,0.72,1.47,1.83,1.47
		C38.7,57.33,39.42,56.82,40.2,55.98z"/>
	<path d="M49.65,55.5V37.09h5.31v18.63c0,1.11,0.54,1.44,0.96,1.44c0.18,0,0.3,0,0.6-0.06l0.63,3.93c-0.57,0.24-1.47,0.45-2.64,0.45
		C50.85,61.47,49.65,59.07,49.65,55.5z"/>
	<path d="M58.65,52.53c0-5.55,3.96-8.97,8.1-8.97c4.92,0,7.32,3.57,7.32,8.25c0,0.93-0.12,1.89-0.24,2.28H63.81
		c0.48,2.34,2.1,3.3,4.26,3.3c1.23,0,2.37-0.36,3.6-1.08l1.77,3.21c-1.77,1.26-4.11,1.95-6.12,1.95
		C62.43,61.47,58.65,58.17,58.65,52.53z M69.54,50.61c0-1.71-0.75-2.97-2.7-2.97c-1.47,0-2.76,0.93-3.12,2.97H69.54z"/>
	<path d="M77.82,54.72v-6.57h-2.31v-3.96l2.61-0.21l0.6-4.5h4.44v4.5h4.02v4.17h-4.02v6.51c0,1.89,0.9,2.64,2.16,2.64
		c0.54,0,1.14-0.18,1.56-0.3l0.84,3.84c-0.9,0.27-2.13,0.63-3.87,0.63C79.56,61.47,77.82,58.77,77.82,54.72z"/>
	<path d="M88.65,59.07l2.37-3.33c1.56,1.2,2.97,1.8,4.32,1.8c1.41,0,2.01-0.51,2.01-1.35c0-1.02-1.65-1.5-3.39-2.19
		c-2.04-0.81-4.44-2.19-4.44-5.01c0-3.24,2.64-5.43,6.6-5.43c2.7,0,4.62,1.08,6.12,2.19l-2.4,3.18c-1.2-0.84-2.4-1.44-3.54-1.44
		c-1.2,0-1.8,0.42-1.8,1.23c0,1.02,1.56,1.41,3.33,2.04c2.13,0.81,4.5,2.04,4.5,5.13c0,3.15-2.46,5.58-7.11,5.58
		C93,61.47,90.36,60.51,88.65,59.07z"/>
</g>
</svg>
