<?xml version="1.0" encoding="utf-8"?>
<!-- Generator: Adobe Illustrator 24.0.1, SVG Export Plug-In . SVG Version: 6.00 Build 0)  -->
<svg version="1.1" id="图层_1" xmlns="http://www.w3.org/2000/svg" xmlns:xlink="http://www.w3.org/1999/xlink" x="0px" y="0px"
	 viewBox="0 0 357.52 36.85" style="enable-background:new 0 0 357.52 36.85;" xml:space="preserve">
<style type="text/css">
	.st0{enable-background:new    ;}
</style>
<g class="st0">
	<path d="M30.83,15.85c0-7.32,4.14-11.46,10.23-11.46s10.23,4.17,10.23,11.46c0,7.32-4.14,11.7-10.23,11.7S30.83,23.16,30.83,15.85z
		 M45.83,15.85c0-4.32-1.83-6.87-4.77-6.87s-4.74,2.55-4.74,6.87c0,4.35,1.8,7.08,4.74,7.08S45.83,20.2,45.83,15.85z"/>
	<path d="M55.01,10.06h4.35l0.36,1.65h0.12c1.35-1.2,3.03-2.07,4.8-2.07c4.08,0,6.66,3.42,6.66,8.67c0,5.88-3.51,9.24-7.17,9.24
		c-1.44,0-2.82-0.63-3.96-1.77l0.15,2.67v4.89h-5.31V10.06z M65.81,18.4c0-3-0.87-4.41-2.76-4.41c-0.99,0-1.8,0.45-2.73,1.44v6.75
		c0.84,0.75,1.74,0.99,2.55,0.99C64.49,23.16,65.81,21.82,65.81,18.4z"/>
	<path d="M73.79,18.61c0-5.55,3.96-8.97,8.1-8.97c4.92,0,7.32,3.57,7.32,8.25c0,0.93-0.12,1.89-0.24,2.28H78.95
		c0.48,2.34,2.1,3.3,4.26,3.3c1.23,0,2.37-0.36,3.6-1.08l1.77,3.21c-1.77,1.26-4.11,1.95-6.12,1.95
		C77.57,27.54,73.79,24.25,73.79,18.61z M84.68,16.69c0-1.71-0.75-2.97-2.7-2.97c-1.47,0-2.76,0.93-3.12,2.97H84.68z"/>
	<path d="M92.63,10.06h4.35l0.36,2.13h0.12c1.41-1.38,3.15-2.55,5.46-2.55c3.72,0,5.31,2.67,5.31,6.93v10.56h-5.34v-9.9
		c0-2.34-0.63-3.03-1.98-3.03c-1.2,0-1.92,0.54-2.97,1.53v11.4h-5.31V10.06z"/>
	<path d="M128.21,9.25h-9.6V4.81h15.3v3.24c-5.16,6.15-5.7,10.35-6.09,19.08h-5.37C122.87,19.78,124.01,15.07,128.21,9.25z"/>
	<path d="M143.51,18.61c0-5.61,3.51-8.97,7.05-8.97c1.89,0,3,0.69,4.11,1.77l-0.21-2.55v-5.7h5.37v23.97h-4.35l-0.39-1.65h-0.12
		c-1.2,1.2-2.85,2.07-4.47,2.07C146.24,27.54,143.51,24.16,143.51,18.61z M154.46,21.73v-6.72c-0.81-0.75-1.74-1.02-2.64-1.02
		c-1.47,0-2.82,1.38-2.82,4.53c0,3.27,1.08,4.65,2.91,4.65C152.93,23.16,153.74,22.83,154.46,21.73z"/>
	<path d="M163.37,22.36c0-3.6,2.82-5.55,9.48-6.27c-0.12-1.38-0.84-2.19-2.58-2.19c-1.35,0-2.76,0.54-4.47,1.5l-1.86-3.51
		c2.25-1.35,4.68-2.25,7.35-2.25c4.41,0,6.9,2.46,6.9,7.8v9.69h-4.35l-0.39-1.71h-0.12c-1.41,1.26-3,2.13-4.89,2.13
		C165.29,27.54,163.37,25.2,163.37,22.36z M172.85,22.06v-2.73c-3.33,0.45-4.41,1.41-4.41,2.61c0,0.99,0.72,1.47,1.83,1.47
		C171.35,23.41,172.07,22.9,172.85,22.06z"/>
	<path d="M181.91,33.37l0.96-4.05c0.3,0.06,0.75,0.21,1.14,0.21c1.62,0,2.46-0.84,2.85-2.04l0.24-0.87l-6.54-16.56h5.37l2.28,7.08
		c0.51,1.56,0.87,3.15,1.32,4.83h0.15c0.33-1.62,0.72-3.21,1.11-4.83l1.98-7.08h5.07l-5.85,17.1c-1.68,4.38-3.51,6.54-7.56,6.54
		C183.32,33.69,182.63,33.58,181.91,33.37z"/>
	<path d="M198.95,25.15l2.37-3.33c1.56,1.2,2.97,1.8,4.32,1.8c1.41,0,2.01-0.51,2.01-1.35c0-1.02-1.65-1.5-3.39-2.19
		c-2.04-0.81-4.44-2.19-4.44-5.01c0-3.24,2.64-5.43,6.6-5.43c2.7,0,4.62,1.08,6.12,2.19l-2.4,3.18c-1.2-0.84-2.4-1.44-3.54-1.44
		c-1.2,0-1.8,0.42-1.8,1.23c0,1.02,1.56,1.41,3.33,2.04c2.13,0.81,4.5,2.04,4.5,5.13c0,3.15-2.46,5.58-7.11,5.58
		C203.3,27.54,200.66,26.58,198.95,25.15z"/>
	<path d="M221.84,22.36c0-3.6,2.82-5.55,9.48-6.27c-0.12-1.38-0.84-2.19-2.58-2.19c-1.35,0-2.76,0.54-4.47,1.5l-1.86-3.51
		c2.25-1.35,4.68-2.25,7.35-2.25c4.41,0,6.9,2.46,6.9,7.8v9.69h-4.35l-0.39-1.71h-0.12c-1.41,1.26-3,2.13-4.89,2.13
		C223.76,27.54,221.84,25.2,221.84,22.36z M231.32,22.06v-2.73c-3.33,0.45-4.41,1.41-4.41,2.61c0,0.99,0.72,1.47,1.83,1.47
		C229.82,23.41,230.54,22.9,231.32,22.06z"/>
	<path d="M246.32,10.06h5.28l1.53,7.65c0.27,1.68,0.45,3.39,0.72,5.1H254c0.3-1.71,0.57-3.45,0.99-5.1l1.74-7.65h4.62l1.83,7.65
		c0.39,1.68,0.69,3.39,1.05,5.1h0.15c0.27-1.71,0.42-3.42,0.75-5.1l1.47-7.65h4.95l-4.02,17.07h-6.24l-1.44-6.51
		c-0.33-1.59-0.6-3.15-0.9-5.01h-0.15c-0.27,1.86-0.51,3.42-0.81,5.01l-1.38,6.51h-6.09L246.32,10.06z"/>
	<path d="M273.26,18.61c0-5.55,3.96-8.97,8.1-8.97c4.92,0,7.32,3.57,7.32,8.25c0,0.93-0.12,1.89-0.24,2.28h-10.02
		c0.48,2.34,2.1,3.3,4.26,3.3c1.23,0,2.37-0.36,3.6-1.08l1.77,3.21c-1.77,1.26-4.11,1.95-6.12,1.95
		C277.04,27.54,273.26,24.25,273.26,18.61z M284.15,16.69c0-1.71-0.75-2.97-2.7-2.97c-1.47,0-2.76,0.93-3.12,2.97H284.15z"/>
	<path d="M291.14,18.61c0-5.55,3.96-8.97,8.1-8.97c4.92,0,7.32,3.57,7.32,8.25c0,0.93-0.12,1.89-0.24,2.28H296.3
		c0.48,2.34,2.1,3.3,4.26,3.3c1.23,0,2.37-0.36,3.6-1.08l1.77,3.21c-1.77,1.26-4.11,1.95-6.12,1.95
		C294.92,27.54,291.14,24.25,291.14,18.61z M302.03,16.69c0-1.71-0.75-2.97-2.7-2.97c-1.47,0-2.76,0.93-3.12,2.97H302.03z"/>
	<path d="M309.98,3.16h5.19v13.38h0.12l5.19-6.48h5.79l-6.03,7.05l6.45,10.02h-5.79l-3.69-6.48l-2.04,2.31v4.17h-5.19V3.16z"/>
</g>
</svg>
