<?xml version="1.0" encoding="utf-8"?>
<!-- Generator: Adobe Illustrator 24.0.1, SVG Export Plug-In . SVG Version: 6.00 Build 0)  -->
<svg version="1.1" id="图层_1" xmlns="http://www.w3.org/2000/svg" xmlns:xlink="http://www.w3.org/1999/xlink" x="0px" y="0px"
	 viewBox="0 0 414.7 36.85" style="enable-background:new 0 0 414.7 36.85;" xml:space="preserve">
<style type="text/css">
	.st0{enable-background:new    ;}
</style>
<g class="st0">
	<path d="M29.99,9.46h-6.03V5.02h17.46v4.44h-6.06v17.88h-5.37V9.46z"/>
	<path d="M44.45,3.37h5.31v5.76l-0.24,3.03c1.23-1.14,2.91-2.31,5.22-2.31c3.72,0,5.31,2.67,5.31,6.93v10.56h-5.34v-9.9
		c0-2.34-0.63-3.03-1.98-3.03c-1.2,0-1.92,0.54-2.97,1.53v11.4h-5.31V3.37z"/>
	<path d="M63.44,22.57c0-3.6,2.82-5.55,9.48-6.27c-0.12-1.38-0.84-2.19-2.58-2.19c-1.35,0-2.76,0.54-4.47,1.5l-1.86-3.51
		c2.25-1.35,4.68-2.25,7.35-2.25c4.41,0,6.9,2.46,6.9,7.8v9.69h-4.35l-0.39-1.71H73.4c-1.41,1.26-3,2.13-4.89,2.13
		C65.36,27.75,63.44,25.41,63.44,22.57z M72.92,22.27v-2.73c-3.33,0.45-4.41,1.41-4.41,2.61c0,0.99,0.72,1.47,1.83,1.47
		C71.42,23.61,72.14,23.11,72.92,22.27z"/>
	<path d="M82.37,10.27h4.35l0.36,2.13h0.12c1.41-1.38,3.15-2.55,5.46-2.55c3.72,0,5.31,2.67,5.31,6.93v10.56h-5.34v-9.9
		c0-2.34-0.63-3.03-1.98-3.03c-1.2,0-1.92,0.54-2.97,1.53v11.4h-5.31V10.27z"/>
	<path d="M102.11,3.37h5.19v13.38h0.12l5.19-6.48h5.79l-6.03,7.05l6.45,10.02h-5.79l-3.69-6.48l-2.04,2.31v4.17h-5.19V3.37z"/>
	<path d="M119.66,25.36l2.37-3.33c1.56,1.2,2.97,1.8,4.32,1.8c1.41,0,2.01-0.51,2.01-1.35c0-1.02-1.65-1.5-3.39-2.19
		c-2.04-0.81-4.44-2.19-4.44-5.01c0-3.24,2.64-5.43,6.6-5.43c2.7,0,4.62,1.08,6.12,2.19l-2.4,3.18c-1.2-0.84-2.4-1.44-3.54-1.44
		c-1.2,0-1.8,0.42-1.8,1.23c0,1.02,1.56,1.41,3.33,2.04c2.13,0.81,4.5,2.04,4.5,5.13c0,3.15-2.46,5.58-7.11,5.58
		C124.01,27.75,121.37,26.79,119.66,25.36z"/>
	<path d="M153.17,7.48c-0.54-0.21-1.17-0.36-1.74-0.36c-1.17,0-1.89,0.63-1.89,2.34v0.81h3.03v4.17h-3.03v12.9h-5.34v-12.9h-2.28
		v-3.96l2.28-0.18V9.61c0-3.6,1.71-6.66,6.45-6.66c1.5,0,2.7,0.3,3.48,0.6L153.17,7.48z"/>
	<path d="M153.92,18.82c0-5.67,4.02-8.97,8.37-8.97c4.32,0,8.34,3.3,8.34,8.97c0,5.64-4.02,8.94-8.34,8.94
		C157.94,27.75,153.92,24.45,153.92,18.82z M165.17,18.82c0-2.85-0.9-4.65-2.88-4.65c-2.01,0-2.91,1.8-2.91,4.65
		c0,2.82,0.9,4.62,2.91,4.62C164.27,23.44,165.17,21.63,165.17,18.82z"/>
	<path d="M173.99,10.27h4.35l0.36,2.97h0.12c1.26-2.28,3.15-3.39,4.86-3.39c1.02,0,1.59,0.15,2.07,0.36l-0.9,4.59
		c-0.6-0.15-1.11-0.27-1.86-0.27c-1.26,0-2.79,0.81-3.69,3.06v9.75h-5.31V10.27z"/>
	<path d="M194.39,33.57l0.96-4.05c0.3,0.06,0.75,0.21,1.14,0.21c1.62,0,2.46-0.84,2.85-2.04l0.24-0.87l-6.54-16.56h5.37l2.28,7.08
		c0.51,1.56,0.87,3.15,1.32,4.83h0.15c0.33-1.62,0.72-3.21,1.11-4.83l1.98-7.08h5.07l-5.85,17.1c-1.68,4.38-3.51,6.54-7.56,6.54
		C195.8,33.9,195.11,33.78,194.39,33.57z"/>
	<path d="M211.61,18.82c0-5.67,4.02-8.97,8.37-8.97c4.32,0,8.34,3.3,8.34,8.97c0,5.64-4.02,8.94-8.34,8.94
		C215.63,27.75,211.61,24.45,211.61,18.82z M222.86,18.82c0-2.85-0.9-4.65-2.88-4.65c-2.01,0-2.91,1.8-2.91,4.65
		c0,2.82,0.9,4.62,2.91,4.62C221.96,23.44,222.86,21.63,222.86,18.82z"/>
	<path d="M231.5,20.83V10.27h5.34v9.9c0,2.37,0.63,3.03,1.98,3.03c1.2,0,1.95-0.48,2.85-1.74V10.27h5.34v17.07h-4.35l-0.39-2.34
		h-0.12c-1.41,1.68-3,2.76-5.34,2.76C233.09,27.75,231.5,25.08,231.5,20.83z"/>
	<path d="M251.3,10.27h4.35l0.36,2.97h0.12c1.26-2.28,3.15-3.39,4.86-3.39c1.02,0,1.59,0.15,2.07,0.36l-0.9,4.59
		c-0.6-0.15-1.11-0.27-1.86-0.27c-1.26,0-2.79,0.81-3.69,3.06v9.75h-5.31V10.27z"/>
	<path d="M271.13,18.82c0-5.67,4.2-8.97,8.97-8.97c2.07,0,3.69,0.72,4.98,1.83l-2.49,3.42c-0.78-0.66-1.44-0.93-2.19-0.93
		c-2.34,0-3.81,1.8-3.81,4.65c0,2.82,1.53,4.62,3.63,4.62c1.08,0,2.1-0.51,2.97-1.2l2.04,3.51c-1.65,1.47-3.81,2.01-5.61,2.01
		C274.82,27.75,271.13,24.45,271.13,18.82z"/>
	<path d="M288.02,20.83V10.27h5.34v9.9c0,2.37,0.63,3.03,1.98,3.03c1.2,0,1.95-0.48,2.85-1.74V10.27h5.34v17.07h-4.35l-0.39-2.34
		h-0.12c-1.41,1.68-3,2.76-5.34,2.76C289.61,27.75,288.02,25.08,288.02,20.83z"/>
	<path d="M306.35,25.36l2.37-3.33c1.56,1.2,2.97,1.8,4.32,1.8c1.41,0,2.01-0.51,2.01-1.35c0-1.02-1.65-1.5-3.39-2.19
		c-2.04-0.81-4.44-2.19-4.44-5.01c0-3.24,2.64-5.43,6.6-5.43c2.7,0,4.62,1.08,6.12,2.19l-2.4,3.18c-1.2-0.84-2.4-1.44-3.54-1.44
		c-1.2,0-1.8,0.42-1.8,1.23c0,1.02,1.56,1.41,3.33,2.04c2.13,0.81,4.5,2.04,4.5,5.13c0,3.15-2.46,5.58-7.11,5.58
		C310.7,27.75,308.06,26.79,306.35,25.36z"/>
	<path d="M323.12,21.01v-6.57h-2.31v-3.96l2.61-0.21l0.6-4.5h4.44v4.5h4.02v4.17h-4.02v6.51c0,1.89,0.9,2.64,2.16,2.64
		c0.54,0,1.14-0.18,1.56-0.3l0.84,3.84c-0.9,0.27-2.13,0.63-3.87,0.63C324.86,27.75,323.12,25.05,323.12,21.01z"/>
	<path d="M334.16,18.82c0-5.67,4.02-8.97,8.37-8.97c4.32,0,8.34,3.3,8.34,8.97c0,5.64-4.02,8.94-8.34,8.94
		C338.18,27.75,334.16,24.45,334.16,18.82z M345.41,18.82c0-2.85-0.9-4.65-2.88-4.65c-2.01,0-2.91,1.8-2.91,4.65
		c0,2.82,0.9,4.62,2.91,4.62C344.51,23.44,345.41,21.63,345.41,18.82z"/>
	<path d="M354.23,10.27h4.35l0.36,2.16h0.12c1.41-1.41,2.88-2.58,5.19-2.58c2.37,0,3.81,0.99,4.68,2.82
		c1.47-1.5,3.06-2.82,5.34-2.82c3.72,0,5.34,2.67,5.34,6.93v10.56h-5.34v-9.9c0-2.34-0.6-3.03-1.95-3.03
		c-0.78,0-1.71,0.48-2.73,1.53v11.4h-5.37v-9.9c0-2.34-0.6-3.03-1.95-3.03c-0.78,0-1.71,0.48-2.73,1.53v11.4h-5.31V10.27z"/>
	<path d="M384.41,24.42c0-1.83,1.32-3.3,3.15-3.3c1.86,0,3.18,1.47,3.18,3.3c0,1.86-1.32,3.33-3.18,3.33
		C385.73,27.75,384.41,26.28,384.41,24.42z M385.07,9.1l-0.18-4.74h5.37l-0.18,4.74l-0.78,10.14h-3.45L385.07,9.1z"/>
</g>
</svg>
