<?xml version="1.0" encoding="utf-8"?>
<!-- Generator: Adobe Illustrator 24.0.1, SVG Export Plug-In . SVG Version: 6.00 Build 0)  -->
<svg version="1.1" id="图层_1" xmlns="http://www.w3.org/2000/svg" xmlns:xlink="http://www.w3.org/1999/xlink" x="0px" y="0px"
	 viewBox="0 0 866.52 36.85" style="enable-background:new 0 0 866.52 36.85;" xml:space="preserve">
<style type="text/css">
	.st0{enable-background:new    ;}
</style>
<g class="st0">
	<path d="M21.66,15.83c0-7.11,4.17-11.43,9.75-11.43c2.67,0,4.77,1.32,6.03,2.73l-1.5,1.8c-1.14-1.23-2.61-2.1-4.5-2.1
		c-4.17,0-6.93,3.42-6.93,8.91c0,5.55,2.64,9.03,6.84,9.03c2.1,0,3.69-0.93,5.1-2.46l1.53,1.74c-1.74,2.01-3.9,3.15-6.75,3.15
		C25.77,27.2,21.66,22.97,21.66,15.83z"/>
	<path d="M52.14,20.09H44.1l-2.13,6.72h-2.82l7.47-21.99h3.09l7.47,21.99h-2.94L52.14,20.09z M51.45,17.87l-1.05-3.36
		c-0.81-2.49-1.5-4.89-2.22-7.44h-0.12c-0.69,2.58-1.41,4.95-2.19,7.44l-1.08,3.36H51.45z"/>
	<path d="M59.67,17.72V4.82h2.79v12.99c0,5.31,2.25,6.96,5.1,6.96c2.94,0,5.25-1.65,5.25-6.96V4.82h2.67v12.9
		c0,7.08-3.42,9.48-7.92,9.48C63.09,27.2,59.67,24.8,59.67,17.72z"/>
	<path d="M85.98,7.16h-6.66V4.82h16.11v2.34h-6.66v19.65h-2.79V7.16z"/>
	<path d="M99.36,4.82h2.79v21.99h-2.79V4.82z"/>
	<path d="M106.89,15.74c0-7.05,3.87-11.34,9.39-11.34c5.52,0,9.39,4.29,9.39,11.34s-3.87,11.46-9.39,11.46
		C110.76,27.2,106.89,22.79,106.89,15.74z M122.82,15.74c0-5.52-2.61-8.91-6.54-8.91c-3.96,0-6.54,3.39-6.54,8.91
		c0,5.49,2.58,9.03,6.54,9.03C120.21,24.77,122.82,21.23,122.82,15.74z"/>
	<path d="M130.41,4.82h2.88l8.01,13.86l2.34,4.53h0.15c-0.15-2.22-0.36-4.68-0.36-6.96V4.82h2.64v21.99h-2.85l-8.01-13.89
		l-2.37-4.53h-0.12c0.12,2.22,0.33,4.56,0.33,6.87v11.55h-2.64V4.82z"/>
	<path d="M151.26,13.04c0-1.26,0.9-2.13,1.98-2.13s1.98,0.87,1.98,2.13c0,1.2-0.9,2.07-1.98,2.07S151.26,14.24,151.26,13.04z
		 M151.26,25.13c0-1.23,0.9-2.13,1.98-2.13s1.98,0.9,1.98,2.13c0,1.23-0.9,2.07-1.98,2.07S151.26,26.36,151.26,25.13z"/>
	<path d="M167.13,4.82h2.79v9.21h10.26V4.82h2.76v21.99h-2.76V16.43h-10.26v10.38h-2.79V4.82z"/>
	<path d="M187.71,22.58c0-3.54,3.09-5.31,10.02-6.09c0-2.1-0.69-4.11-3.36-4.11c-1.89,0-3.6,0.87-4.89,1.74l-1.08-1.89
		c1.5-0.96,3.81-2.13,6.42-2.13c3.96,0,5.64,2.67,5.64,6.69v10.02h-2.25l-0.24-1.95h-0.09c-1.56,1.29-3.39,2.34-5.4,2.34
		C189.75,27.2,187.71,25.52,187.71,22.58z M197.73,22.85v-4.56c-5.49,0.66-7.35,2.01-7.35,4.11c0,1.86,1.26,2.61,2.88,2.61
		C194.85,25.01,196.14,24.26,197.73,22.85z"/>
	<path d="M205.65,10.52h2.25l0.24,2.34h0.09c1.56-1.53,3.24-2.76,5.46-2.76c3.42,0,4.98,2.22,4.98,6.39v10.32h-2.73v-9.96
		c0-3.06-0.93-4.35-3.09-4.35c-1.68,0-2.82,0.84-4.47,2.49v11.82h-2.73V10.52z"/>
	<path d="M222.72,29.93c0-1.38,0.9-2.7,2.43-3.69v-0.12c-0.87-0.51-1.5-1.38-1.5-2.67c0-1.35,0.99-2.43,1.83-3.03V20.3
		c-1.08-0.87-2.13-2.43-2.13-4.38c0-3.57,2.82-5.82,6.12-5.82c0.9,0,1.71,0.21,2.28,0.42h5.67v2.1h-3.33
		c0.78,0.75,1.32,1.95,1.32,3.36c0,3.48-2.64,5.67-5.94,5.67c-0.81,0-1.71-0.21-2.43-0.57c-0.6,0.51-1.05,1.05-1.05,1.95
		c0,1.05,0.66,1.77,2.85,1.77h3.18c3.78,0,5.67,1.2,5.67,3.87c0,3.03-3.18,5.64-8.22,5.64C225.48,34.31,222.72,32.75,222.72,29.93z
		 M235.05,29.09c0-1.5-1.17-2.01-3.33-2.01h-2.82c-0.6,0-1.38-0.09-2.1-0.27c-1.17,0.84-1.68,1.8-1.68,2.76
		c0,1.74,1.77,2.88,4.74,2.88C232.98,32.45,235.05,30.8,235.05,29.09z M232.92,15.92c0-2.37-1.53-3.81-3.45-3.81
		s-3.48,1.41-3.48,3.81c0,2.37,1.59,3.87,3.48,3.87C231.33,19.79,232.92,18.29,232.92,15.92z"/>
	<path d="M254.91,5.15c-0.6-0.27-1.26-0.42-1.83-0.42c-1.56,0-2.31,1.11-2.31,3.21v2.58h3.45v2.22h-3.45v14.07h-2.73V12.74h-2.22
		v-2.07l2.22-0.15V7.91c0-3.3,1.5-5.37,4.74-5.37c0.99,0,1.95,0.21,2.73,0.54L254.91,5.15z"/>
	<path d="M257.34,10.52h2.25l0.24,2.97h0.09c1.14-2.07,2.79-3.39,4.62-3.39c0.72,0,1.23,0.09,1.74,0.36l-0.51,2.4
		c-0.54-0.21-0.93-0.27-1.59-0.27c-1.35,0-3.03,0.96-4.11,3.75v10.47h-2.73V10.52z"/>
	<path d="M267.42,18.68c0-5.28,3.57-8.58,7.35-8.58c4.14,0,6.48,3,6.48,7.65c0,0.6-0.06,1.17-0.12,1.56h-10.98
		c0.18,3.48,2.31,5.7,5.4,5.7c1.59,0,2.88-0.48,4.08-1.29l0.99,1.8c-1.44,0.93-3.18,1.68-5.4,1.68
		C270.9,27.2,267.42,24.05,267.42,18.68z M278.85,17.36c0-3.3-1.5-5.07-4.05-5.07c-2.31,0-4.35,1.86-4.68,5.07H278.85z"/>
	<path d="M284.04,18.68c0-5.28,3.57-8.58,7.35-8.58c4.14,0,6.48,3,6.48,7.65c0,0.6-0.06,1.17-0.12,1.56h-10.98
		c0.18,3.48,2.31,5.7,5.4,5.7c1.59,0,2.88-0.48,4.08-1.29l0.99,1.8c-1.44,0.93-3.18,1.68-5.4,1.68
		C287.52,27.2,284.04,24.05,284.04,18.68z M295.47,17.36c0-3.3-1.5-5.07-4.05-5.07c-2.31,0-4.35,1.86-4.68,5.07H295.47z"/>
	<path d="M301.89,23.57V2.93h2.73v20.82c0,0.84,0.36,1.17,0.78,1.17c0.15,0,0.27,0,0.57-0.06l0.39,2.1
		c-0.39,0.15-0.87,0.24-1.59,0.24C302.73,27.2,301.89,25.88,301.89,23.57z"/>
	<path d="M308.79,33.5l0.54-2.19c0.33,0.12,0.81,0.27,1.23,0.27c1.86,0,3.03-1.5,3.69-3.51l0.36-1.23l-6.54-16.32h2.85l3.33,9.06
		c0.48,1.41,1.05,3.09,1.56,4.56h0.15c0.45-1.47,0.93-3.12,1.38-4.56l2.91-9.06h2.67l-6.15,17.64c-1.14,3.21-2.82,5.67-6.06,5.67
		C309.93,33.83,309.3,33.71,308.79,33.5z"/>
	<path d="M331.77,22.58c0-3.54,3.09-5.31,10.02-6.09c0-2.1-0.69-4.11-3.36-4.11c-1.89,0-3.6,0.87-4.89,1.74l-1.08-1.89
		c1.5-0.96,3.81-2.13,6.42-2.13c3.96,0,5.64,2.67,5.64,6.69v10.02h-2.25l-0.24-1.95h-0.09c-1.56,1.29-3.39,2.34-5.4,2.34
		C333.81,27.2,331.77,25.52,331.77,22.58z M341.79,22.85v-4.56c-5.49,0.66-7.35,2.01-7.35,4.11c0,1.86,1.26,2.61,2.88,2.61
		C338.91,25.01,340.2,24.26,341.79,22.85z"/>
	<path d="M349.71,10.52h2.25l0.24,2.34h0.09c1.56-1.53,3.24-2.76,5.46-2.76c3.42,0,4.98,2.22,4.98,6.39v10.32H360v-9.96
		c0-3.06-0.93-4.35-3.09-4.35c-1.68,0-2.82,0.84-4.47,2.49v11.82h-2.73V10.52z"/>
	<path d="M366.87,18.68c0-5.28,3.33-8.58,7.05-8.58c1.92,0,3.15,0.72,4.59,1.92l-0.15-2.82V2.93h2.73v23.88h-2.22l-0.27-1.92h-0.06
		c-1.29,1.26-3,2.31-4.95,2.31C369.51,27.2,366.87,24.11,366.87,18.68z M378.36,22.67v-8.55c-1.38-1.23-2.61-1.71-3.96-1.71
		c-2.64,0-4.71,2.52-4.71,6.24c0,3.93,1.62,6.27,4.5,6.27C375.69,24.92,377.01,24.17,378.36,22.67z"/>
	<path d="M392.34,22.58c0-3.54,3.09-5.31,10.02-6.09c0-2.1-0.69-4.11-3.36-4.11c-1.89,0-3.6,0.87-4.89,1.74l-1.08-1.89
		c1.5-0.96,3.81-2.13,6.42-2.13c3.96,0,5.64,2.67,5.64,6.69v10.02h-2.25l-0.24-1.95h-0.09c-1.56,1.29-3.39,2.34-5.4,2.34
		C394.38,27.2,392.34,25.52,392.34,22.58z M402.36,22.85v-4.56c-5.49,0.66-7.35,2.01-7.35,4.11c0,1.86,1.26,2.61,2.88,2.61
		C399.48,25.01,400.77,24.26,402.36,22.85z"/>
	<path d="M407.91,10.52h2.85l3.06,9.27c0.51,1.59,1.02,3.27,1.53,4.8h0.12c0.48-1.53,1.02-3.21,1.5-4.8l3.09-9.27h2.7l-5.79,16.29
		h-3.18L407.91,10.52z"/>
	<path d="M424.56,18.68c0-5.43,3.57-8.58,7.56-8.58c3.99,0,7.56,3.15,7.56,8.58c0,5.4-3.57,8.52-7.56,8.52
		C428.13,27.2,424.56,24.08,424.56,18.68z M436.86,18.68c0-3.75-1.92-6.3-4.74-6.3c-2.82,0-4.71,2.55-4.71,6.3s1.89,6.24,4.71,6.24
		C434.94,24.92,436.86,22.43,436.86,18.68z"/>
	<path d="M443.46,5.39c0-1.11,0.81-1.77,1.89-1.77s1.89,0.66,1.89,1.77c0,1.02-0.81,1.77-1.89,1.77S443.46,6.41,443.46,5.39z
		 M443.97,10.52h2.73v16.29h-2.73V10.52z"/>
	<path d="M451.05,18.68c0-5.28,3.33-8.58,7.05-8.58c1.92,0,3.15,0.72,4.59,1.92l-0.15-2.82V2.93h2.73v23.88h-2.22l-0.27-1.92h-0.06
		c-1.29,1.26-3,2.31-4.95,2.31C453.69,27.2,451.05,24.11,451.05,18.68z M462.54,22.67v-8.55c-1.38-1.23-2.61-1.71-3.96-1.71
		c-2.64,0-4.71,2.52-4.71,6.24c0,3.93,1.62,6.27,4.5,6.27C459.87,24.92,461.19,24.17,462.54,22.67z"/>
	<path d="M476.31,18.68c0-5.43,3.69-8.58,7.86-8.58c2.13,0,3.6,0.9,4.77,1.92l-1.41,1.83c-0.96-0.87-1.95-1.47-3.27-1.47
		c-2.94,0-5.1,2.55-5.1,6.3s2.04,6.24,5.04,6.24c1.5,0,2.82-0.69,3.84-1.62l1.17,1.83c-1.44,1.32-3.3,2.07-5.25,2.07
		C479.64,27.2,476.31,24.08,476.31,18.68z"/>
	<path d="M490.86,18.68c0-5.43,3.57-8.58,7.56-8.58c3.99,0,7.56,3.15,7.56,8.58c0,5.4-3.57,8.52-7.56,8.52
		C494.43,27.2,490.86,24.08,490.86,18.68z M503.16,18.68c0-3.75-1.92-6.3-4.74-6.3c-2.82,0-4.71,2.55-4.71,6.3s1.89,6.24,4.71,6.24
		C501.24,24.92,503.16,22.43,503.16,18.68z"/>
	<path d="M510.27,10.52h2.25l0.24,2.34h0.09c1.56-1.53,3.24-2.76,5.46-2.76c3.42,0,4.98,2.22,4.98,6.39v10.32h-2.73v-9.96
		c0-3.06-0.93-4.35-3.09-4.35c-1.68,0-2.82,0.84-4.47,2.49v11.82h-2.73V10.52z"/>
	<path d="M529.08,21.77v-9.03h-2.43v-2.07l2.55-0.15l0.33-4.56h2.28v4.56h4.41v2.22h-4.41v9.09c0,2.01,0.63,3.15,2.52,3.15
		c0.57,0,1.32-0.21,1.86-0.42l0.54,2.04c-0.93,0.3-2.01,0.6-3,0.6C530.25,27.2,529.08,25.04,529.08,21.77z"/>
	<path d="M538.17,22.58c0-3.54,3.09-5.31,10.02-6.09c0-2.1-0.69-4.11-3.36-4.11c-1.89,0-3.6,0.87-4.89,1.74l-1.08-1.89
		c1.5-0.96,3.81-2.13,6.42-2.13c3.96,0,5.64,2.67,5.64,6.69v10.02h-2.25l-0.24-1.95h-0.09c-1.56,1.29-3.39,2.34-5.4,2.34
		C540.21,27.2,538.17,25.52,538.17,22.58z M548.19,22.85v-4.56c-5.49,0.66-7.35,2.01-7.35,4.11c0,1.86,1.26,2.61,2.88,2.61
		C545.31,25.01,546.6,24.26,548.19,22.85z"/>
	<path d="M554.88,18.68c0-5.43,3.69-8.58,7.86-8.58c2.13,0,3.6,0.9,4.77,1.92l-1.41,1.83c-0.96-0.87-1.95-1.47-3.27-1.47
		c-2.94,0-5.1,2.55-5.1,6.3s2.04,6.24,5.04,6.24c1.5,0,2.82-0.69,3.84-1.62l1.17,1.83c-1.44,1.32-3.3,2.07-5.25,2.07
		C558.21,27.2,554.88,24.08,554.88,18.68z"/>
	<path d="M571.53,21.77v-9.03h-2.43v-2.07l2.55-0.15l0.33-4.56h2.28v4.56h4.41v2.22h-4.41v9.09c0,2.01,0.63,3.15,2.52,3.15
		c0.57,0,1.32-0.21,1.86-0.42l0.54,2.04c-0.93,0.3-2.01,0.6-3,0.6C572.7,27.2,571.53,25.04,571.53,21.77z"/>
	<path d="M587.13,10.52h2.79l2.43,9.42c0.33,1.56,0.66,3.03,0.96,4.56h0.15c0.36-1.53,0.69-3.03,1.11-4.56l2.52-9.42h2.67l2.55,9.42
		c0.39,1.56,0.75,3.03,1.14,4.56h0.12c0.36-1.53,0.66-3,1.02-4.56l2.4-9.42h2.58l-4.38,16.29h-3.3l-2.37-8.79
		c-0.42-1.53-0.72-3.03-1.11-4.68h-0.15c-0.36,1.65-0.69,3.18-1.11,4.74l-2.28,8.73h-3.21L587.13,10.52z"/>
	<path d="M612.63,5.39c0-1.11,0.81-1.77,1.89-1.77s1.89,0.66,1.89,1.77c0,1.02-0.81,1.77-1.89,1.77S612.63,6.41,612.63,5.39z
		 M613.14,10.52h2.73v16.29h-2.73V10.52z"/>
	<path d="M621.87,21.77v-9.03h-2.43v-2.07l2.55-0.15l0.33-4.56h2.28v4.56h4.41v2.22h-4.41v9.09c0,2.01,0.63,3.15,2.52,3.15
		c0.57,0,1.32-0.21,1.86-0.42l0.54,2.04c-0.93,0.3-2.01,0.6-3,0.6C623.04,27.2,621.87,25.04,621.87,21.77z"/>
	<path d="M632.7,2.93h2.73v6.54l-0.09,3.36c1.5-1.5,3.18-2.73,5.4-2.73c3.42,0,4.98,2.22,4.98,6.39v10.32h-2.73v-9.96
		c0-3.06-0.93-4.35-3.09-4.35c-1.68,0-2.82,0.84-4.47,2.49v11.82h-2.73V2.93z"/>
	<path d="M656.4,18.68c0-5.43,3.57-8.58,7.56-8.58c3.99,0,7.56,3.15,7.56,8.58c0,5.4-3.57,8.52-7.56,8.52
		C659.97,27.2,656.4,24.08,656.4,18.68z M668.7,18.68c0-3.75-1.92-6.3-4.74-6.3c-2.82,0-4.71,2.55-4.71,6.3s1.89,6.24,4.71,6.24
		C666.78,24.92,668.7,22.43,668.7,18.68z"/>
	<path d="M675.72,21.77v-9.03h-2.43v-2.07l2.55-0.15l0.33-4.56h2.28v4.56h4.41v2.22h-4.41v9.09c0,2.01,0.63,3.15,2.52,3.15
		c0.57,0,1.32-0.21,1.86-0.42l0.54,2.04c-0.93,0.3-2.01,0.6-3,0.6C676.89,27.2,675.72,25.04,675.72,21.77z"/>
	<path d="M686.55,2.93h2.73v6.54l-0.09,3.36c1.5-1.5,3.18-2.73,5.4-2.73c3.42,0,4.98,2.22,4.98,6.39v10.32h-2.73v-9.96
		c0-3.06-0.93-4.35-3.09-4.35c-1.68,0-2.82,0.84-4.47,2.49v11.82h-2.73V2.93z"/>
	<path d="M703.53,18.68c0-5.28,3.57-8.58,7.35-8.58c4.14,0,6.48,3,6.48,7.65c0,0.6-0.06,1.17-0.12,1.56h-10.98
		c0.18,3.48,2.31,5.7,5.4,5.7c1.59,0,2.88-0.48,4.08-1.29l0.99,1.8c-1.44,0.93-3.18,1.68-5.4,1.68
		C707.01,27.2,703.53,24.05,703.53,18.68z M714.96,17.36c0-3.3-1.5-5.07-4.05-5.07c-2.31,0-4.35,1.86-4.68,5.07H714.96z"/>
	<path d="M721.38,10.52h2.25l0.24,2.97h0.09c1.14-2.07,2.79-3.39,4.62-3.39c0.72,0,1.23,0.09,1.74,0.36l-0.51,2.4
		c-0.54-0.21-0.93-0.27-1.59-0.27c-1.35,0-3.03,0.96-4.11,3.75v10.47h-2.73V10.52z"/>
	<path d="M737.91,24.95l1.35-1.8c1.41,1.14,2.88,1.92,4.83,1.92c2.16,0,3.21-1.14,3.21-2.55c0-1.65-1.92-2.4-3.72-3.09
		c-2.28-0.84-4.86-1.95-4.86-4.71c0-2.58,2.07-4.62,5.61-4.62c2.01,0,3.78,0.84,5.07,1.83l-1.32,1.77
		c-1.14-0.84-2.28-1.44-3.75-1.44c-2.04,0-2.97,1.08-2.97,2.34c0,1.56,1.77,2.13,3.6,2.82c2.37,0.9,4.98,1.86,4.98,4.95
		c0,2.64-2.1,4.83-5.94,4.83C741.69,27.2,739.47,26.24,737.91,24.95z"/>
	<path d="M753.57,20.84V10.52h2.73v9.99c0,3.03,0.9,4.32,3.06,4.32c1.68,0,2.85-0.81,4.41-2.76V10.52h2.73v16.29h-2.28l-0.21-2.55
		h-0.09c-1.53,1.77-3.15,2.94-5.4,2.94C755.1,27.2,753.57,24.98,753.57,20.84z"/>
	<path d="M771.99,10.52h2.25l0.24,2.97h0.09c1.14-2.07,2.79-3.39,4.62-3.39c0.72,0,1.23,0.09,1.74,0.36l-0.51,2.4
		c-0.54-0.21-0.93-0.27-1.59-0.27c-1.35,0-3.03,0.96-4.11,3.75v10.47h-2.73V10.52z"/>
	<path d="M790.95,5.15c-0.6-0.27-1.26-0.42-1.83-0.42c-1.56,0-2.31,1.11-2.31,3.21v2.58h3.45v2.22h-3.45v14.07h-2.73V12.74h-2.22
		v-2.07l2.22-0.15V7.91c0-3.3,1.5-5.37,4.74-5.37c0.99,0,1.95,0.21,2.73,0.54L790.95,5.15z"/>
	<path d="M791.7,22.58c0-3.54,3.09-5.31,10.02-6.09c0-2.1-0.69-4.11-3.36-4.11c-1.89,0-3.6,0.87-4.89,1.74l-1.08-1.89
		c1.5-0.96,3.81-2.13,6.42-2.13c3.96,0,5.64,2.67,5.64,6.69v10.02h-2.25l-0.24-1.95h-0.09c-1.56,1.29-3.39,2.34-5.4,2.34
		C793.74,27.2,791.7,25.52,791.7,22.58z M801.72,22.85v-4.56c-5.49,0.66-7.35,2.01-7.35,4.11c0,1.86,1.26,2.61,2.88,2.61
		C798.84,25.01,800.13,24.26,801.72,22.85z"/>
	<path d="M808.41,18.68c0-5.43,3.69-8.58,7.86-8.58c2.13,0,3.6,0.9,4.77,1.92l-1.41,1.83c-0.96-0.87-1.95-1.47-3.27-1.47
		c-2.94,0-5.1,2.55-5.1,6.3s2.04,6.24,5.04,6.24c1.5,0,2.82-0.69,3.84-1.62l1.17,1.83c-1.44,1.32-3.3,2.07-5.25,2.07
		C811.74,27.2,808.41,24.08,808.41,18.68z"/>
	<path d="M822.96,18.68c0-5.28,3.57-8.58,7.35-8.58c4.14,0,6.48,3,6.48,7.65c0,0.6-0.06,1.17-0.12,1.56h-10.98
		c0.18,3.48,2.31,5.7,5.4,5.7c1.59,0,2.88-0.48,4.08-1.29l0.99,1.8c-1.44,0.93-3.18,1.68-5.4,1.68
		C826.44,27.2,822.96,24.05,822.96,18.68z M834.39,17.36c0-3.3-1.5-5.07-4.05-5.07c-2.31,0-4.35,1.86-4.68,5.07H834.39z"/>
	<path d="M840.9,25.13c0-1.23,0.9-2.13,1.98-2.13c1.11,0,1.98,0.9,1.98,2.13c0,1.23-0.87,2.07-1.98,2.07
		C841.8,27.2,840.9,26.36,840.9,25.13z M841.59,7.46l-0.09-3.12h2.79l-0.09,3.12l-0.36,12.72h-1.89L841.59,7.46z"/>
</g>
</svg>
