<?xml version="1.0" encoding="utf-8"?>
<!-- Generator: Adobe Illustrator 24.0.1, SVG Export Plug-In . SVG Version: 6.00 Build 0)  -->
<svg version="1.1" id="图层_1" xmlns="http://www.w3.org/2000/svg" xmlns:xlink="http://www.w3.org/1999/xlink" x="0px" y="0px"
	 viewBox="0 0 976.5 36.85" style="enable-background:new 0 0 976.5 36.85;" xml:space="preserve">
<style type="text/css">
	.st0{enable-background:new    ;}
</style>
<g class="st0">
	<path d="M28.77,20.06h-8.04l-2.13,6.72h-2.82l7.47-21.99h3.09l7.47,21.99h-2.94L28.77,20.06z M28.08,17.84l-1.05-3.36
		c-0.81-2.49-1.5-4.89-2.22-7.44h-0.12c-0.69,2.58-1.41,4.95-2.19,7.44l-1.08,3.36H28.08z"/>
	<path d="M33.48,4.79h2.91l3.57,11.91c0.78,2.58,1.29,4.68,2.13,7.26h0.12c0.81-2.58,1.35-4.68,2.13-7.26l3.54-11.91h2.82
		l-6.99,21.99H40.5L33.48,4.79z"/>
	<path d="M52.11,15.71c0-7.05,3.87-11.34,9.39-11.34c5.52,0,9.39,4.29,9.39,11.34s-3.87,11.46-9.39,11.46
		C55.99,27.17,52.11,22.76,52.11,15.71z M68.04,15.71c0-5.52-2.61-8.91-6.54-8.91c-3.96,0-6.54,3.39-6.54,8.91
		c0,5.49,2.58,9.03,6.54,9.03C65.43,24.74,68.04,21.2,68.04,15.71z"/>
	<path d="M75.64,4.79h2.79v21.99h-2.79V4.79z"/>
	<path d="M84.43,4.79h5.52c6.75,0,10.38,3.93,10.38,10.92c0,6.96-3.63,11.07-10.26,11.07h-5.64V4.79z M89.7,24.5
		c5.19,0,7.74-3.24,7.74-8.79c0-5.58-2.55-8.67-7.74-8.67h-2.49V24.5H89.7z"/>
	<path d="M110.49,15.8c0-7.11,4.17-11.43,9.75-11.43c2.67,0,4.77,1.32,6.03,2.73l-1.5,1.8c-1.14-1.23-2.61-2.1-4.5-2.1
		c-4.17,0-6.93,3.42-6.93,8.91c0,5.55,2.64,9.03,6.84,9.03c2.1,0,3.69-0.93,5.1-2.46l1.53,1.74c-1.74,2.01-3.9,3.15-6.75,3.15
		C114.6,27.17,110.49,22.94,110.49,15.8z"/>
	<path d="M128.67,15.71c0-7.05,3.87-11.34,9.39-11.34c5.52,0,9.39,4.29,9.39,11.34s-3.87,11.46-9.39,11.46
		C132.54,27.17,128.67,22.76,128.67,15.71z M144.6,15.71c0-5.52-2.61-8.91-6.54-8.91c-3.96,0-6.54,3.39-6.54,8.91
		c0,5.49,2.58,9.03,6.54,9.03C141.99,24.74,144.6,21.2,144.6,15.71z"/>
	<path d="M152.19,4.79h2.88l8.01,13.86l2.34,4.53h0.15c-0.15-2.22-0.36-4.68-0.36-6.96V4.79h2.64v21.99H165l-8.01-13.89l-2.37-4.53
		h-0.12c0.12,2.22,0.33,4.56,0.33,6.87v11.55h-2.64V4.79z"/>
	<path d="M178.44,7.13h-6.66V4.79h16.11v2.34h-6.66v19.65h-2.79V7.13z"/>
	<path d="M200.55,20.06h-8.04l-2.13,6.72h-2.82l7.47-21.99h3.09l7.47,21.99h-2.94L200.55,20.06z M199.86,17.84l-1.05-3.36
		c-0.81-2.49-1.5-4.89-2.22-7.44h-0.12c-0.69,2.58-1.41,4.95-2.19,7.44l-1.08,3.36H199.86z"/>
	<path d="M207.09,15.8c0-7.11,4.17-11.43,9.75-11.43c2.67,0,4.77,1.32,6.03,2.73l-1.5,1.8c-1.14-1.23-2.61-2.1-4.5-2.1
		c-4.17,0-6.93,3.42-6.93,8.91c0,5.55,2.64,9.03,6.84,9.03c2.1,0,3.69-0.93,5.1-2.46l1.53,1.74c-1.74,2.01-3.9,3.15-6.75,3.15
		C211.2,27.17,207.09,22.94,207.09,15.8z"/>
	<path d="M231.48,7.13h-6.66V4.79h16.11v2.34h-6.66v19.65h-2.79V7.13z"/>
	<path d="M249.33,4.79h2.88l2.31,11.97c0.42,2.37,0.87,4.74,1.29,7.11h0.12c0.51-2.37,1.05-4.74,1.59-7.11l3.03-11.97h2.52
		l3.09,11.97c0.54,2.34,1.05,4.71,1.56,7.11h0.15c0.42-2.4,0.84-4.77,1.26-7.11l2.31-11.97h2.67l-4.56,21.99h-3.33l-3.33-13.26
		c-0.39-1.74-0.72-3.33-1.08-5.01h-0.12c-0.36,1.68-0.75,3.27-1.11,5.01l-3.27,13.26h-3.3L249.33,4.79z"/>
	<path d="M277.92,4.79h2.79v21.99h-2.79V4.79z"/>
	<path d="M291.3,7.13h-6.66V4.79h16.11v2.34h-6.66v19.65h-2.79V7.13z"/>
	<path d="M304.68,4.79h2.79V14h10.26V4.79h2.76v21.99h-2.76V16.4h-10.26v10.38h-2.79V4.79z"/>
	<path d="M333.24,4.79h6.27c4.95,0,8.25,1.65,8.25,6.45c0,4.65-3.3,6.81-8.1,6.81h-3.63v8.73h-2.79V4.79z M339.3,15.8
		c3.87,0,5.7-1.41,5.7-4.56c0-3.18-1.95-4.2-5.82-4.2h-3.15v8.76H339.3z"/>
	<path d="M360.6,20.06h-8.04l-2.13,6.72h-2.82l7.47-21.99h3.09l7.47,21.99h-2.94L360.6,20.06z M359.91,17.84l-1.05-3.36
		c-0.81-2.49-1.5-4.89-2.22-7.44h-0.12c-0.69,2.58-1.41,4.95-2.19,7.44l-1.08,3.36H359.91z"/>
	<path d="M368.73,4.79h2.79v21.99h-2.79V4.79z"/>
	<path d="M377.52,4.79h2.88l8.01,13.86l2.34,4.53h0.15c-0.15-2.22-0.36-4.68-0.36-6.96V4.79h2.64v21.99h-2.85l-8.01-13.89
		l-2.37-4.53h-0.12c0.12,2.22,0.33,4.56,0.33,6.87v11.55h-2.64V4.79z"/>
	<path d="M403.77,7.13h-6.66V4.79h16.11v2.34h-6.66v19.65h-2.79V7.13z"/>
	<path d="M417.15,4.79h12.69v2.34h-9.9v6.9h8.34v2.37h-8.34v8.01h10.23v2.37h-13.02V4.79z"/>
	<path d="M434.79,4.79h5.52c6.75,0,10.38,3.93,10.38,10.92c0,6.96-3.63,11.07-10.26,11.07h-5.64V4.79z M440.07,24.5
		c5.19,0,7.74-3.24,7.74-8.79c0-5.58-2.55-8.67-7.74-8.67h-2.49V24.5H440.07z"/>
	<path d="M453.99,30.86c1.86-0.81,2.97-2.25,3-4.08c-0.12,0.03-0.21,0.03-0.33,0.03c-1.05,0-2.01-0.66-2.01-1.92
		c0-1.17,0.96-1.92,2.07-1.92c1.44,0,2.31,1.23,2.31,3.24c0,2.88-1.68,5.13-4.38,6.27L453.99,30.86z"/>
	<path d="M470.46,4.79h6.27c4.95,0,8.25,1.65,8.25,6.45c0,4.65-3.3,6.81-8.1,6.81h-3.63v8.73h-2.79V4.79z M476.52,15.8
		c3.87,0,5.7-1.41,5.7-4.56c0-3.18-1.95-4.2-5.82-4.2h-3.15v8.76H476.52z"/>
	<path d="M489.42,4.79h2.79v19.62h9.6v2.37h-12.39V4.79z"/>
	<path d="M515.85,20.06h-8.04l-2.13,6.72h-2.82l7.47-21.99h3.09l7.47,21.99h-2.94L515.85,20.06z M515.16,17.84l-1.05-3.36
		c-0.81-2.49-1.5-4.89-2.22-7.44h-0.12c-0.69,2.58-1.41,4.95-2.19,7.44l-1.08,3.36H515.16z"/>
	<path d="M522.39,23.9l1.65-1.89c1.59,1.65,3.81,2.73,6.09,2.73c2.88,0,4.62-1.44,4.62-3.6c0-2.25-1.59-2.97-3.66-3.9l-3.18-1.38
		c-2.04-0.87-4.47-2.43-4.47-5.64c0-3.39,2.94-5.85,6.93-5.85c2.61,0,4.92,1.11,6.48,2.73l-1.47,1.77
		c-1.35-1.26-2.97-2.07-5.01-2.07c-2.49,0-4.11,1.26-4.11,3.24c0,2.13,1.92,2.94,3.63,3.66l3.15,1.35c2.55,1.11,4.53,2.61,4.53,5.88
		c0,3.48-2.88,6.24-7.47,6.24C526.98,27.17,524.31,25.91,522.39,23.9z"/>
	<path d="M545.82,7.13h-6.66V4.79h16.11v2.34h-6.66v19.65h-2.79V7.13z"/>
	<path d="M559.2,4.79h2.79v21.99h-2.79V4.79z"/>
	<path d="M566.73,15.8c0-7.11,4.17-11.43,9.75-11.43c2.67,0,4.77,1.32,6.03,2.73l-1.5,1.8c-1.14-1.23-2.61-2.1-4.5-2.1
		c-4.17,0-6.93,3.42-6.93,8.91c0,5.55,2.64,9.03,6.84,9.03c2.1,0,3.69-0.93,5.1-2.46l1.53,1.74c-1.74,2.01-3.9,3.15-6.75,3.15
		C570.84,27.17,566.73,22.94,566.73,15.8z"/>
	<path d="M592.59,15.71c0-7.05,3.87-11.34,9.39-11.34c5.52,0,9.39,4.29,9.39,11.34s-3.87,11.46-9.39,11.46
		C596.46,27.17,592.59,22.76,592.59,15.71z M608.52,15.71c0-5.52-2.61-8.91-6.54-8.91c-3.96,0-6.54,3.39-6.54,8.91
		c0,5.49,2.58,9.03,6.54,9.03C605.91,24.74,608.52,21.2,608.52,15.71z"/>
	<path d="M628.2,26.78l-5.34-9.33h-3.96v9.33h-2.79V4.79h6.9c4.47,0,7.68,1.59,7.68,6.18c0,3.42-1.98,5.46-4.98,6.18l5.64,9.63
		H628.2z M618.9,15.2h3.69c3.45,0,5.34-1.38,5.34-4.23c0-2.91-1.89-3.93-5.34-3.93h-3.69V15.2z"/>
	<path d="M638.91,4.79h2.91l3.57,11.91c0.78,2.58,1.29,4.68,2.13,7.26h0.12c0.81-2.58,1.35-4.68,2.13-7.26l3.54-11.91h2.82
		l-6.99,21.99h-3.21L638.91,4.79z"/>
	<path d="M668.76,20.06h-8.04l-2.13,6.72h-2.82l7.47-21.99h3.09l7.47,21.99h-2.94L668.76,20.06z M668.07,17.84l-1.05-3.36
		c-0.81-2.49-1.5-4.89-2.22-7.44h-0.12c-0.69,2.58-1.41,4.95-2.19,7.44l-1.08,3.36H668.07z"/>
	<path d="M688.98,26.78l-5.34-9.33h-3.96v9.33h-2.79V4.79h6.9c4.47,0,7.68,1.59,7.68,6.18c0,3.42-1.98,5.46-4.98,6.18l5.64,9.63
		H688.98z M679.68,15.2h3.69c3.45,0,5.34-1.38,5.34-4.23c0-2.91-1.89-3.93-5.34-3.93h-3.69V15.2z"/>
	<path d="M695.94,4.79h2.88l8.01,13.86l2.34,4.53h0.15c-0.15-2.22-0.36-4.68-0.36-6.96V4.79h2.64v21.99h-2.85l-8.01-13.89
		l-2.37-4.53h-0.12c0.12,2.22,0.33,4.56,0.33,6.87v11.55h-2.64V4.79z"/>
	<path d="M717.6,4.79h2.79v21.99h-2.79V4.79z"/>
	<path d="M724.8,23.9l1.65-1.89c1.59,1.65,3.81,2.73,6.09,2.73c2.88,0,4.62-1.44,4.62-3.6c0-2.25-1.59-2.97-3.66-3.9l-3.18-1.38
		c-2.04-0.87-4.47-2.43-4.47-5.64c0-3.39,2.94-5.85,6.93-5.85c2.61,0,4.92,1.11,6.48,2.73l-1.47,1.77
		c-1.35-1.26-2.97-2.07-5.01-2.07c-2.49,0-4.11,1.26-4.11,3.24c0,2.13,1.92,2.94,3.63,3.66l3.15,1.35c2.55,1.11,4.53,2.61,4.53,5.88
		c0,3.48-2.88,6.24-7.47,6.24C729.39,27.17,726.72,25.91,724.8,23.9z"/>
	<path d="M744.3,4.79h2.79V14h10.26V4.79h2.76v21.99h-2.76V16.4h-10.26v10.38h-2.79V4.79z"/>
	<path d="M766.14,4.79h12.69v2.34h-9.9v6.9h8.34v2.37h-8.34v8.01h10.23v2.37h-13.02V4.79z"/>
	<path d="M783.78,4.79h5.52c6.75,0,10.38,3.93,10.38,10.92c0,6.96-3.63,11.07-10.26,11.07h-5.64V4.79z M789.06,24.5
		c5.19,0,7.74-3.24,7.74-8.79c0-5.58-2.55-8.67-7.74-8.67h-2.49V24.5H789.06z"/>
	<path d="M809.52,23.9l1.65-1.89c1.59,1.65,3.81,2.73,6.09,2.73c2.88,0,4.62-1.44,4.62-3.6c0-2.25-1.59-2.97-3.66-3.9l-3.18-1.38
		c-2.04-0.87-4.47-2.43-4.47-5.64c0-3.39,2.94-5.85,6.93-5.85c2.61,0,4.92,1.11,6.48,2.73l-1.47,1.77
		c-1.35-1.26-2.97-2.07-5.01-2.07c-2.49,0-4.11,1.26-4.11,3.24c0,2.13,1.92,2.94,3.63,3.66l3.15,1.35c2.55,1.11,4.53,2.61,4.53,5.88
		c0,3.48-2.88,6.24-7.47,6.24C814.11,27.17,811.44,25.91,809.52,23.9z"/>
	<path d="M828.93,17.69V4.79h2.79v12.99c0,5.31,2.25,6.96,5.1,6.96c2.94,0,5.25-1.65,5.25-6.96V4.79h2.67v12.9
		c0,7.08-3.42,9.48-7.92,9.48C832.35,27.17,828.93,24.77,828.93,17.69z"/>
	<path d="M862.74,26.78l-5.34-9.33h-3.96v9.33h-2.79V4.79h6.9c4.47,0,7.68,1.59,7.68,6.18c0,3.42-1.98,5.46-4.98,6.18l5.64,9.63
		H862.74z M853.44,15.2h3.69c3.45,0,5.34-1.38,5.34-4.23c0-2.91-1.89-3.93-5.34-3.93h-3.69V15.2z"/>
	<path d="M869.7,4.79h12.69v2.34h-9.9v7.44h8.4v2.34h-8.4v9.87h-2.79V4.79z"/>
	<path d="M895.08,20.06h-8.04l-2.13,6.72h-2.82l7.47-21.99h3.09l7.47,21.99h-2.94L895.08,20.06z M894.39,17.84l-1.05-3.36
		c-0.81-2.49-1.5-4.89-2.22-7.44H891c-0.69,2.58-1.41,4.95-2.19,7.44l-1.08,3.36H894.39z"/>
	<path d="M901.62,15.8c0-7.11,4.17-11.43,9.75-11.43c2.67,0,4.77,1.32,6.03,2.73l-1.5,1.8c-1.14-1.23-2.61-2.1-4.5-2.1
		c-4.17,0-6.93,3.42-6.93,8.91c0,5.55,2.64,9.03,6.84,9.03c2.1,0,3.69-0.93,5.1-2.46l1.53,1.74c-1.74,2.01-3.9,3.15-6.75,3.15
		C905.73,27.17,901.62,22.94,901.62,15.8z"/>
	<path d="M922.02,4.79h12.69v2.34h-9.9v6.9h8.34v2.37h-8.34v8.01h10.23v2.37h-13.02V4.79z"/>
	<path d="M938.07,23.9l1.65-1.89c1.59,1.65,3.81,2.73,6.09,2.73c2.88,0,4.62-1.44,4.62-3.6c0-2.25-1.59-2.97-3.66-3.9l-3.18-1.38
		c-2.04-0.87-4.47-2.43-4.47-5.64c0-3.39,2.94-5.85,6.93-5.85c2.61,0,4.92,1.11,6.48,2.73l-1.47,1.77
		c-1.35-1.26-2.97-2.07-5.01-2.07c-2.49,0-4.11,1.26-4.11,3.24c0,2.13,1.92,2.94,3.63,3.66l3.15,1.35c2.55,1.11,4.53,2.61,4.53,5.88
		c0,3.48-2.88,6.24-7.47,6.24C942.66,27.17,939.99,25.91,938.07,23.9z"/>
	<path d="M956.76,25.1c0-1.23,0.9-2.13,1.98-2.13s1.98,0.9,1.98,2.13c0,1.23-0.9,2.07-1.98,2.07S956.76,26.33,956.76,25.1z"/>
</g>
</svg>
