<?xml version="1.0" encoding="utf-8"?>
<!-- Generator: Adobe Illustrator 24.0.1, SVG Export Plug-In . SVG Version: 6.00 Build 0)  -->
<svg version="1.1" id="图层_1" xmlns="http://www.w3.org/2000/svg" xmlns:xlink="http://www.w3.org/1999/xlink" x="0px" y="0px"
	 viewBox="0 0 357.52 36.85" style="enable-background:new 0 0 357.52 36.85;" xml:space="preserve">
<style type="text/css">
	.st0{enable-background:new    ;}
</style>
<g class="st0">
	<path d="M9.92,19.41L3.2,4.99h5.7l1.86,4.95c0.6,1.68,1.17,3.24,1.8,4.98h0.12c0.63-1.74,1.23-3.3,1.86-4.98l1.86-4.95h5.61
		l-6.75,14.43v7.89H9.92V19.41z"/>
	<path d="M20.96,18.79c0-5.67,4.02-8.97,8.37-8.97c4.32,0,8.34,3.3,8.34,8.97c0,5.64-4.02,8.94-8.34,8.94
		C24.98,27.72,20.96,24.42,20.96,18.79z M32.21,18.79c0-2.85-0.9-4.65-2.88-4.65c-2.01,0-2.91,1.8-2.91,4.65
		c0,2.82,0.9,4.62,2.91,4.62C31.31,23.41,32.21,21.6,32.21,18.79z"/>
	<path d="M40.85,20.79V10.24h5.34v9.9c0,2.37,0.63,3.03,1.98,3.03c1.2,0,1.95-0.48,2.85-1.74V10.24h5.34V27.3h-4.35l-0.39-2.34H51.5
		c-1.41,1.68-3,2.76-5.34,2.76C42.44,27.72,40.85,25.05,40.85,20.79z"/>
	<path d="M60.65,10.24H65l0.36,2.97h0.12c1.26-2.28,3.15-3.39,4.86-3.39c1.02,0,1.59,0.15,2.07,0.36l-0.9,4.59
		c-0.6-0.15-1.11-0.27-1.86-0.27c-1.26,0-2.79,0.81-3.69,3.06v9.75h-5.31V10.24z"/>
	<path d="M79.7,10.24h5.37l2.07,7.86c0.42,1.68,0.84,3.45,1.29,5.25h0.15c0.39-1.8,0.84-3.57,1.26-5.25l2.1-7.86h5.13L91.55,27.3
		h-6.18L79.7,10.24z"/>
	<path d="M98.21,22.54c0-3.6,2.82-5.55,9.48-6.27c-0.12-1.38-0.84-2.19-2.58-2.19c-1.35,0-2.76,0.54-4.47,1.5l-1.86-3.51
		c2.25-1.35,4.68-2.25,7.35-2.25c4.41,0,6.9,2.46,6.9,7.8v9.69h-4.35l-0.39-1.71h-0.12c-1.41,1.26-3,2.13-4.89,2.13
		C100.13,27.72,98.21,25.38,98.21,22.54z M107.69,22.24V19.5c-3.33,0.45-4.41,1.41-4.41,2.61c0,0.99,0.72,1.47,1.83,1.47
		C106.19,23.58,106.91,23.08,107.69,22.24z"/>
	<path d="M117.14,21.75V3.34h5.31v18.63c0,1.11,0.54,1.44,0.96,1.44c0.18,0,0.3,0,0.6-0.06l0.63,3.93
		c-0.57,0.24-1.47,0.45-2.64,0.45C118.34,27.72,117.14,25.33,117.14,21.75z"/>
	<path d="M126.14,18.79c0-5.55,3.96-8.97,8.1-8.97c4.92,0,7.32,3.57,7.32,8.25c0,0.93-0.12,1.89-0.24,2.28H131.3
		c0.48,2.34,2.1,3.3,4.26,3.3c1.23,0,2.37-0.36,3.6-1.08l1.77,3.21c-1.77,1.26-4.11,1.95-6.12,1.95
		C129.92,27.72,126.14,24.42,126.14,18.79z M137.03,16.87c0-1.71-0.75-2.97-2.7-2.97c-1.47,0-2.76,0.93-3.12,2.97H137.03z"/>
	<path d="M145.31,20.97v-6.57H143v-3.96l2.61-0.21l0.6-4.5h4.44v4.5h4.02v4.17h-4.02v6.51c0,1.89,0.9,2.64,2.16,2.64
		c0.54,0,1.14-0.18,1.56-0.3l0.84,3.84c-0.9,0.27-2.13,0.63-3.87,0.63C147.05,27.72,145.31,25.02,145.31,20.97z"/>
	<path d="M157.58,5.14c0-1.62,1.26-2.76,3.06-2.76c1.77,0,3.03,1.14,3.03,2.76c0,1.59-1.26,2.73-3.03,2.73
		C158.84,7.87,157.58,6.73,157.58,5.14z M157.97,10.24h5.31V27.3h-5.31V10.24z"/>
	<path d="M167.6,10.24h4.35l0.36,2.13h0.12c1.41-1.38,3.15-2.55,5.46-2.55c3.72,0,5.31,2.67,5.31,6.93V27.3h-5.34v-9.9
		c0-2.34-0.63-3.03-1.98-3.03c-1.2,0-1.92,0.54-2.97,1.53v11.4h-5.31V10.24z"/>
	<path d="M186.29,30.18c0-1.41,0.84-2.55,2.43-3.36v-0.15c-0.9-0.6-1.56-1.5-1.56-2.94c0-1.2,0.78-2.4,1.89-3.18v-0.12
		c-1.2-0.84-2.31-2.43-2.31-4.41c0-4.17,3.45-6.21,7.14-6.21c0.99,0,1.92,0.15,2.7,0.42h6.27v3.87h-2.64
		c0.27,0.48,0.48,1.26,0.48,2.07c0,3.99-3.03,5.73-6.81,5.73c-0.57,0-1.26-0.09-2.01-0.3c-0.39,0.36-0.54,0.63-0.54,1.2
		c0,0.78,0.69,1.14,2.52,1.14h2.7c4.2,0,6.57,1.29,6.57,4.38c0,3.6-3.72,6.15-9.66,6.15C189.53,34.47,186.29,33.24,186.29,30.18z
		 M198.02,29.25c0-1.02-0.9-1.23-2.49-1.23h-1.62c-1.23,0-1.89-0.06-2.43-0.21c-0.54,0.48-0.81,0.96-0.81,1.53
		c0,1.2,1.44,1.8,3.63,1.8C196.49,31.14,198.02,30.33,198.02,29.25z M196.04,16.03c0-1.74-0.9-2.64-2.16-2.64
		c-1.23,0-2.16,0.9-2.16,2.64c0,1.77,0.93,2.67,2.16,2.67C195.14,18.7,196.04,17.79,196.04,16.03z"/>
	<path d="M211.22,25.33l2.37-3.33c1.56,1.2,2.97,1.8,4.32,1.8c1.41,0,2.01-0.51,2.01-1.35c0-1.02-1.65-1.5-3.39-2.19
		c-2.04-0.81-4.44-2.19-4.44-5.01c0-3.24,2.64-5.43,6.6-5.43c2.7,0,4.62,1.08,6.12,2.19l-2.4,3.18c-1.2-0.84-2.4-1.44-3.54-1.44
		c-1.2,0-1.8,0.42-1.8,1.23c0,1.02,1.56,1.41,3.33,2.04c2.13,0.81,4.5,2.04,4.5,5.13c0,3.15-2.46,5.58-7.11,5.58
		C215.57,27.72,212.93,26.76,211.22,25.33z"/>
	<path d="M227.99,10.24h4.35l0.36,1.65h0.12c1.35-1.2,3.03-2.07,4.8-2.07c4.08,0,6.66,3.42,6.66,8.67c0,5.88-3.51,9.24-7.17,9.24
		c-1.44,0-2.82-0.63-3.96-1.77l0.15,2.67v4.89h-5.31V10.24z M238.79,18.58c0-3-0.87-4.41-2.76-4.41c-0.99,0-1.8,0.45-2.73,1.44v6.75
		c0.84,0.75,1.74,0.99,2.55,0.99C237.47,23.34,238.79,22,238.79,18.58z"/>
	<path d="M246.77,18.79c0-5.55,3.96-8.97,8.1-8.97c4.92,0,7.32,3.57,7.32,8.25c0,0.93-0.12,1.89-0.24,2.28h-10.02
		c0.48,2.34,2.1,3.3,4.26,3.3c1.23,0,2.37-0.36,3.6-1.08l1.77,3.21c-1.77,1.26-4.11,1.95-6.12,1.95
		C250.55,27.72,246.77,24.42,246.77,18.79z M257.66,16.87c0-1.71-0.75-2.97-2.7-2.97c-1.47,0-2.76,0.93-3.12,2.97H257.66z"/>
	<path d="M264.65,18.79c0-5.67,4.2-8.97,8.97-8.97c2.07,0,3.69,0.72,4.98,1.83l-2.49,3.42c-0.78-0.66-1.44-0.93-2.19-0.93
		c-2.34,0-3.81,1.8-3.81,4.65c0,2.82,1.53,4.62,3.63,4.62c1.08,0,2.1-0.51,2.97-1.2l2.04,3.51c-1.65,1.47-3.81,2.01-5.61,2.01
		C268.34,27.72,264.65,24.42,264.65,18.79z"/>
	<path d="M281.33,5.14c0-1.62,1.26-2.76,3.06-2.76c1.77,0,3.03,1.14,3.03,2.76c0,1.59-1.26,2.73-3.03,2.73
		C282.59,7.87,281.33,6.73,281.33,5.14z M281.72,10.24h5.31V27.3h-5.31V10.24z"/>
	<path d="M290.6,22.54c0-3.6,2.82-5.55,9.48-6.27c-0.12-1.38-0.84-2.19-2.58-2.19c-1.35,0-2.76,0.54-4.47,1.5l-1.86-3.51
		c2.25-1.35,4.68-2.25,7.35-2.25c4.41,0,6.9,2.46,6.9,7.8v9.69h-4.35l-0.39-1.71h-0.12c-1.41,1.26-3,2.13-4.89,2.13
		C292.52,27.72,290.6,25.38,290.6,22.54z M300.08,22.24V19.5c-3.33,0.45-4.41,1.41-4.41,2.61c0,0.99,0.72,1.47,1.83,1.47
		C298.58,23.58,299.3,23.08,300.08,22.24z"/>
	<path d="M309.53,21.75V3.34h5.31v18.63c0,1.11,0.54,1.44,0.96,1.44c0.18,0,0.3,0,0.6-0.06l0.63,3.93
		c-0.57,0.24-1.47,0.45-2.64,0.45C310.73,27.72,309.53,25.33,309.53,21.75z"/>
	<path d="M319.1,5.14c0-1.62,1.26-2.76,3.06-2.76c1.77,0,3.03,1.14,3.03,2.76c0,1.59-1.26,2.73-3.03,2.73
		C320.36,7.87,319.1,6.73,319.1,5.14z M319.49,10.24h5.31V27.3h-5.31V10.24z"/>
	<path d="M327.65,25.33l2.37-3.33c1.56,1.2,2.97,1.8,4.32,1.8c1.41,0,2.01-0.51,2.01-1.35c0-1.02-1.65-1.5-3.39-2.19
		c-2.04-0.81-4.44-2.19-4.44-5.01c0-3.24,2.64-5.43,6.6-5.43c2.7,0,4.62,1.08,6.12,2.19l-2.4,3.18c-1.2-0.84-2.4-1.44-3.54-1.44
		c-1.2,0-1.8,0.42-1.8,1.23c0,1.02,1.56,1.41,3.33,2.04c2.13,0.81,4.5,2.04,4.5,5.13c0,3.15-2.46,5.58-7.11,5.58
		C332,27.72,329.36,26.76,327.65,25.33z"/>
	<path d="M344.42,20.97v-6.57h-2.31v-3.96l2.61-0.21l0.6-4.5h4.44v4.5h4.02v4.17h-4.02v6.51c0,1.89,0.9,2.64,2.16,2.64
		c0.54,0,1.14-0.18,1.56-0.3l0.84,3.84c-0.9,0.27-2.13,0.63-3.87,0.63C346.16,27.72,344.42,25.02,344.42,20.97z"/>
</g>
</svg>
