<?xml version="1.0" encoding="utf-8"?>
<!-- Generator: Adobe Illustrator 24.0.1, SVG Export Plug-In . SVG Version: 6.00 Build 0)  -->
<svg version="1.1" id="图层_1" xmlns="http://www.w3.org/2000/svg" xmlns:xlink="http://www.w3.org/1999/xlink" x="0px" y="0px"
	 viewBox="0 0 357.52 36.85" style="enable-background:new 0 0 357.52 36.85;" xml:space="preserve">
<style type="text/css">
	.st0{enable-background:new    ;}
</style>
<g class="st0">
	<path d="M41.27,22.31L34.55,7.88h5.7l1.86,4.95c0.6,1.68,1.17,3.24,1.8,4.98h0.12c0.63-1.74,1.23-3.3,1.86-4.98l1.86-4.95h5.61
		l-6.75,14.43v7.89h-5.34V22.31z"/>
	<path d="M52.31,21.68c0-5.67,4.02-8.97,8.37-8.97c4.32,0,8.34,3.3,8.34,8.97c0,5.64-4.02,8.94-8.34,8.94
		C56.33,30.62,52.31,27.32,52.31,21.68z M63.56,21.68c0-2.85-0.9-4.65-2.88-4.65c-2.01,0-2.91,1.8-2.91,4.65
		c0,2.82,0.9,4.62,2.91,4.62C62.66,26.3,63.56,24.5,63.56,21.68z"/>
	<path d="M72.2,23.69V13.13h5.34v9.9c0,2.37,0.63,3.03,1.98,3.03c1.2,0,1.95-0.48,2.85-1.74V13.13h5.34V30.2h-4.35l-0.39-2.34h-0.12
		c-1.41,1.68-3,2.76-5.34,2.76C73.79,30.62,72.2,27.95,72.2,23.69z"/>
	<path d="M92,13.13h4.35l0.36,2.97h0.12c1.26-2.28,3.15-3.39,4.86-3.39c1.02,0,1.59,0.15,2.07,0.36l-0.9,4.59
		c-0.6-0.15-1.11-0.27-1.86-0.27c-1.26,0-2.79,0.81-3.69,3.06v9.75H92V13.13z"/>
	<path d="M112.79,24.65V6.23h5.31v18.63c0,1.11,0.54,1.44,0.96,1.44c0.18,0,0.3,0,0.6-0.06l0.63,3.93
		c-0.57,0.24-1.47,0.45-2.64,0.45C113.99,30.62,112.79,28.22,112.79,24.65z"/>
	<path d="M121.79,21.68c0-5.67,4.02-8.97,8.37-8.97c4.32,0,8.34,3.3,8.34,8.97c0,5.64-4.02,8.94-8.34,8.94
		C125.81,30.62,121.79,27.32,121.79,21.68z M133.04,21.68c0-2.85-0.9-4.65-2.88-4.65c-2.01,0-2.91,1.8-2.91,4.65
		c0,2.82,0.9,4.62,2.91,4.62C132.14,26.3,133.04,24.5,133.04,21.68z"/>
	<path d="M140.9,21.68c0-5.67,4.2-8.97,8.97-8.97c2.07,0,3.69,0.72,4.98,1.83l-2.49,3.42c-0.78-0.66-1.44-0.93-2.19-0.93
		c-2.34,0-3.81,1.8-3.81,4.65c0,2.82,1.53,4.62,3.63,4.62c1.08,0,2.1-0.51,2.97-1.2l2.04,3.51c-1.65,1.47-3.81,2.01-5.61,2.01
		C144.59,30.62,140.9,27.32,140.9,21.68z"/>
	<path d="M156.86,25.43c0-3.6,2.82-5.55,9.48-6.27c-0.12-1.38-0.84-2.19-2.58-2.19c-1.35,0-2.76,0.54-4.47,1.5l-1.86-3.51
		c2.25-1.35,4.68-2.25,7.35-2.25c4.41,0,6.9,2.46,6.9,7.8v9.69h-4.35l-0.39-1.71h-0.12c-1.41,1.26-3,2.13-4.89,2.13
		C158.78,30.62,156.86,28.28,156.86,25.43z M166.34,25.13V22.4c-3.33,0.45-4.41,1.41-4.41,2.61c0,0.99,0.72,1.47,1.83,1.47
		C164.84,26.48,165.56,25.97,166.34,25.13z"/>
	<path d="M175.79,24.65V6.23h5.31v18.63c0,1.11,0.54,1.44,0.96,1.44c0.18,0,0.3,0,0.6-0.06l0.63,3.93
		c-0.57,0.24-1.47,0.45-2.64,0.45C176.99,30.62,175.79,28.22,175.79,24.65z"/>
	<path d="M191.66,21.68c0-5.67,4.2-8.97,8.97-8.97c2.07,0,3.69,0.72,4.98,1.83l-2.49,3.42c-0.78-0.66-1.44-0.93-2.19-0.93
		c-2.34,0-3.81,1.8-3.81,4.65c0,2.82,1.53,4.62,3.63,4.62c1.08,0,2.1-0.51,2.97-1.2l2.04,3.51c-1.65,1.47-3.81,2.01-5.61,2.01
		C195.35,30.62,191.66,27.32,191.66,21.68z"/>
	<path d="M207.62,25.43c0-3.6,2.82-5.55,9.48-6.27c-0.12-1.38-0.84-2.19-2.58-2.19c-1.35,0-2.76,0.54-4.47,1.5l-1.86-3.51
		c2.25-1.35,4.68-2.25,7.35-2.25c4.41,0,6.9,2.46,6.9,7.8v9.69h-4.35l-0.39-1.71h-0.12c-1.41,1.26-3,2.13-4.89,2.13
		C209.54,30.62,207.62,28.28,207.62,25.43z M217.1,25.13V22.4c-3.33,0.45-4.41,1.41-4.41,2.61c0,0.99,0.72,1.47,1.83,1.47
		C215.6,26.48,216.32,25.97,217.1,25.13z"/>
	<path d="M226.55,13.13h4.35l0.36,2.97h0.12c1.26-2.28,3.15-3.39,4.86-3.39c1.02,0,1.59,0.15,2.07,0.36l-0.9,4.59
		c-0.6-0.15-1.11-0.27-1.86-0.27c-1.26,0-2.79,0.81-3.69,3.06v9.75h-5.31V13.13z"/>
	<path d="M246.02,13.13h5.28l1.53,7.65c0.27,1.68,0.45,3.39,0.72,5.1h0.15c0.3-1.71,0.57-3.45,0.99-5.1l1.74-7.65h4.62l1.83,7.65
		c0.39,1.68,0.69,3.39,1.05,5.1h0.15c0.27-1.71,0.42-3.42,0.75-5.1l1.47-7.65h4.95l-4.02,17.07h-6.24l-1.44-6.51
		c-0.33-1.59-0.6-3.15-0.9-5.01h-0.15c-0.27,1.86-0.51,3.42-0.81,5.01l-1.38,6.51h-6.09L246.02,13.13z"/>
	<path d="M273.14,25.43c0-3.6,2.82-5.55,9.48-6.27c-0.12-1.38-0.84-2.19-2.58-2.19c-1.35,0-2.76,0.54-4.47,1.5l-1.86-3.51
		c2.25-1.35,4.68-2.25,7.35-2.25c4.41,0,6.9,2.46,6.9,7.8v9.69h-4.35l-0.39-1.71h-0.12c-1.41,1.26-3,2.13-4.89,2.13
		C275.06,30.62,273.14,28.28,273.14,25.43z M282.62,25.13V22.4c-3.33,0.45-4.41,1.41-4.41,2.61c0,0.99,0.72,1.47,1.83,1.47
		C281.12,26.48,281.84,25.97,282.62,25.13z"/>
	<path d="M290.6,28.22l2.37-3.33c1.56,1.2,2.97,1.8,4.32,1.8c1.41,0,2.01-0.51,2.01-1.35c0-1.02-1.65-1.5-3.39-2.19
		c-2.04-0.81-4.44-2.19-4.44-5.01c0-3.24,2.64-5.43,6.6-5.43c2.7,0,4.62,1.08,6.12,2.19l-2.4,3.18c-1.2-0.84-2.4-1.44-3.54-1.44
		c-1.2,0-1.8,0.42-1.8,1.23c0,1.02,1.56,1.41,3.33,2.04c2.13,0.81,4.5,2.04,4.5,5.13c0,3.15-2.46,5.58-7.11,5.58
		C294.95,30.62,292.31,29.66,290.6,28.22z"/>
	<path d="M307.37,6.23h5.31v5.76l-0.24,3.03c1.23-1.14,2.91-2.31,5.22-2.31c3.72,0,5.31,2.67,5.31,6.93V30.2h-5.34v-9.9
		c0-2.34-0.63-3.03-1.98-3.03c-1.2,0-1.92,0.54-2.97,1.53v11.4h-5.31V6.23z"/>
</g>
</svg>
